<svg xmlns="http://www.w3.org/2000/svg" xmlns:xlink="http://www.w3.org/1999/xlink" width="500px" height="500px" viewBox="0 0 500 500">
    <g id="7d5e2b0d-450d-4c40-85f6-32157f8f4dd7">
<g style="">
		<g id="7d5e2b0d-450d-4c40-85f6-32157f8f4dd7-child-0">
<path style="stroke: rgb(193,193,193); stroke-opacity: 1.00; stroke-width: 0; stroke-dasharray: none; stroke-linecap: butt; stroke-dashoffset: 0; stroke-linejoin: miter; stroke-miterlimit: 4; fill: rgb(23,74,43); fill-opacity: 1.00; fill-rule: nonzero; opacity: 1;" transform="matrix(0.307617 0 0 0.307617 249.999904 216.632128) matrix(1 0 0 1 1.798183 -5.975358)  translate(-513.798184, -506.024642)" d="M 411.00 622.04 L 410.50 636.50 L 406.46 636.80 C 404.24 636.96 402.11 636.77 401.71 636.38 C 401.32 635.99 401.00 625.39 401.00 612.83 L 401.00 590.00 L 410.82 590.00 L 420.66 603.94 C 426.07 611.61 430.84 617.91 431.25 617.94 C 431.66 617.97 432.00 611.70 432.00 604.00 L 432.00 590.00 L 442.04 590.00 L 441.50 636.50 L 432.66 636.50 L 422.08 622.04 L 411.50 607.58 Z M 834.10 633.75 C 834.04 634.55 832.38 635.00 829.50 635.00 L 825.00 635.00 L 825.00 589.00 L 834.83 589.00 L 844.67 602.46 C 850.08 609.86 854.84 615.94 855.25 615.96 C 855.66 615.98 856.00 609.92 856.00 602.50 L 856.00 589.00 L 866.07 589.00 L 865.79 612.00 L 865.50 635.00 L 860.87 635.00 L 856.23 635.00 L 850.28 626.75 C 847.01 622.21 842.44 615.69 840.13 612.25 C 837.82 608.81 835.45 606.00 834.88 606.00 C 834.19 606.00 833.89 610.56 834.01 619.25 C 834.11 626.54 834.15 633.06 834.10 633.75 Z M 931.50 549.49 C 921.45 551.61 912.84 551.30 903.50 548.49 C 897.25 546.61 893.14 546.07 884.75 546.04 C 874.08 546.00 874.00 545.98 874.00 543.60 C 874.00 541.25 874.22 541.19 883.73 540.85 C 891.79 540.56 894.59 540.88 899.98 542.72 C 912.24 546.91 928.04 545.55 940.50 539.25 C 951.74 533.56 964.09 517.75 967.64 504.50 C 969.27 498.42 969.40 485.00 967.90 477.80 C 966.61 471.63 962.10 462.22 957.69 456.51 C 953.12 450.60 937.18 432.99 925.55 421.00 C 913.77 408.85 912.00 406.50 912.00 402.98 C 912.00 396.87 918.82 396.08 924.58 401.51 C 928.23 404.95 928.79 407.93 925.18 404.66 C 922.61 402.33 918.29 402.50 917.51 404.96 C 916.70 407.54 918.41 410.60 923.42 415.50 C 925.67 417.70 935.98 428.73 946.33 440.00 C 962.30 457.40 965.74 461.71 969.05 468.50 C 974.10 478.84 975.72 489.86 974.07 502.75 C 971.13 525.83 953.87 544.79 931.50 549.49 Z M 354.11 632.00 C 352.45 636.50 352.45 636.50 347.09 636.81 C 346.49 636.84 345.94 636.90 345.44 636.94 C 344.14 637.07 343.25 637.16 342.81 636.75 C 341.84 635.85 343.15 632.50 347.36 621.71 C 348.07 619.87 348.88 617.80 349.77 615.50 C 353.60 605.60 357.34 595.81 358.07 593.75 C 359.40 590.02 359.43 590.00 365.03 590.00 C 370.50 590.00 370.70 590.10 371.75 593.25 C 372.35 595.04 376.25 605.20 380.42 615.84 C 384.59 626.48 388.00 635.59 388.00 636.09 C 388.00 637.48 379.38 637.17 378.25 635.75 C 377.71 635.06 376.71 632.80 376.04 630.71 L 374.82 626.93 L 365.29 627.21 L 355.76 627.50 Z M 230.78 631.75 C 229.45 636.47 229.41 636.50 224.81 636.80 C 222.27 636.97 219.93 636.70 219.63 636.22 C 219.21 635.53 228.05 611.82 236.04 592.25 C 236.83 590.31 237.70 590.00 242.28 590.00 L 247.60 590.00 L 249.94 596.25 C 251.22 599.69 253.28 605.42 254.52 609.00 C 255.76 612.58 258.58 620.08 260.79 625.68 C 262.99 631.29 264.54 636.12 264.23 636.43 C 263.92 636.75 261.74 637.00 259.37 637.00 C 255.13 637.00 255.06 636.95 253.31 632.00 L 251.53 627.00 L 232.12 627.00 Z M 736.08 616.00 L 735.50 634.50 L 731.46 634.80 C 729.24 634.96 727.11 634.77 726.71 634.38 C 726.32 633.99 726.00 623.62 726.00 611.33 L 726.00 589.00 L 736.00 589.00 L 736.00 607.00 L 755.00 607.00 L 755.00 589.00 L 765.04 589.00 L 764.77 611.75 L 764.50 634.50 L 755.50 634.50 L 755.21 624.64 C 754.93 615.02 754.87 614.80 752.71 615.38 C 751.50 615.71 747.25 615.98 743.29 615.99 Z M 564.00 625.00 L 564.00 635.00 L 559.67 635.00 C 557.28 635.00 555.03 634.70 554.67 634.33 C 554.30 633.97 554.00 623.67 554.00 611.46 L 554.00 589.25 L 557.12 588.62 L 557.55 588.54 C 560.40 587.97 561.99 587.65 562.88 588.30 C 564.00 589.11 564.00 591.47 564.00 596.82 L 564.00 597.44 C 564.00 602.63 564.36 607.10 564.79 607.37 C 565.57 607.85 576.30 594.76 578.78 590.30 C 579.88 588.34 580.86 588.00 585.53 588.00 C 588.54 588.00 591.00 588.34 591.00 588.77 C 591.00 589.19 587.35 594.37 582.89 600.28 L 574.78 611.02 L 577.61 614.76 C 579.17 616.82 583.05 621.61 586.22 625.40 C 589.40 629.20 592.00 632.91 592.00 633.65 C 592.00 634.61 590.47 635.00 586.66 635.00 L 581.33 635.00 L 573.65 625.00 C 569.42 619.50 565.52 615.00 564.98 615.00 C 564.40 615.00 564.00 619.11 564.00 625.00 Z M 687.92 402.50 L 688.03 519.00 L 685.68 519.00 C 684.39 519.00 683.03 518.70 682.67 518.33 C 682.30 517.97 682.00 490.55 682.00 457.40 L 682.00 397.13 L 688.50 396.50 L 688.50 385.75 C 688.50 379.84 688.63 375.00 688.80 375.00 C 688.96 375.00 690.43 375.69 692.05 376.53 L 695.00 378.05 L 695.00 401.88 L 691.46 402.19 Z M 810.12 627.00 L 809.50 634.50 L 795.94 634.78 C 788.49 634.93 782.08 634.74 781.69 634.36 C 781.31 633.98 781.00 623.62 781.00 611.33 L 781.00 589.00 L 810.12 589.00 L 809.50 596.50 L 800.20 596.79 L 790.90 597.08 L 791.20 602.29 L 791.50 607.50 L 809.00 608.08 L 809.00 615.00 L 791.00 615.00 L 791.00 627.00 Z M 220.00 402.13 L 220.00 519.00 L 217.67 519.00 C 216.38 519.00 215.03 518.70 214.67 518.33 C 214.30 517.97 214.00 490.52 214.00 457.33 L 214.00 397.00 L 221.00 397.00 L 221.00 375.09 L 227.03 378.50 L 226.50 401.50 Z M 409.00 461.06 L 409.00 465.54 C 409.00 510.50 409.00 519.30 406.95 519.80 C 406.45 519.93 405.84 519.56 405.07 519.11 C 404.96 519.04 404.86 518.98 404.75 518.92 C 403.11 517.97 403.00 513.97 403.00 457.45 C 403.00 398.53 403.05 397.00 404.92 397.00 C 409.69 397.00 410.00 396.32 410.00 385.95 L 410.00 376.10 L 416.06 378.22 L 415.78 389.86 L 415.50 401.50 L 409.00 402.13 Z M 346.00 537.25 L 346.00 546.00 L 241.95 546.00 L 240.98 543.43 C 240.44 542.02 240.00 540.67 240.00 540.43 C 240.00 540.20 262.49 540.00 289.98 540.00 L 339.96 540.00 L 340.53 537.74 C 340.84 536.50 340.96 527.72 340.80 518.24 C 340.63 508.76 340.82 501.00 341.20 501.00 C 341.59 501.00 343.12 501.55 344.60 502.23 L 347.29 503.45 L 346.65 515.98 C 346.30 522.86 346.01 532.44 346.00 537.25 Z M 159.00 502.00 L 159.00 546.00 L 107.75 545.97 C 74.80 545.95 55.87 545.58 54.75 544.92 C 53.79 544.36 53.00 543.02 53.00 541.95 C 53.00 540.04 54.09 540.00 103.00 540.00 L 153.00 540.00 L 153.00 502.00 Z M 106.00 402.00 L 106.00 511.00 L 99.98 511.00 L 100.24 453.75 L 100.50 396.50 L 107.00 395.87 L 107.00 385.82 C 107.00 375.88 107.03 375.77 109.25 376.37 C 110.49 376.70 111.84 376.98 112.25 376.99 C 112.66 376.99 113.00 382.62 113.00 389.50 L 113.00 402.00 Z M 707.50 634.62 C 695.10 638.43 681.28 633.22 675.78 622.65 C 672.78 616.89 672.77 606.14 675.75 600.41 C 678.41 595.30 683.68 590.59 688.53 588.99 C 692.98 587.52 709.48 588.08 711.15 589.75 C 712.00 590.60 711.96 591.68 710.99 594.01 C 709.85 596.77 709.39 597.05 707.10 596.33 C 705.67 595.89 701.94 595.52 698.82 595.51 C 692.69 595.50 689.45 597.18 685.58 602.36 C 682.76 606.14 682.76 615.19 685.57 620.01 C 689.48 626.70 697.52 629.37 706.34 626.92 C 708.46 626.33 710.36 626.02 710.56 626.23 C 710.77 626.44 711.07 628.13 711.22 629.99 C 711.48 633.16 711.23 633.47 707.50 634.62 Z M 552.59 516.75 C 553.06 518.39 552.81 519.00 551.69 519.00 C 548.67 519.00 547.39 516.11 544.11 501.89 C 542.29 493.98 539.48 481.88 537.88 475.00 C 531.80 448.98 529.95 440.94 525.54 421.50 C 523.05 410.50 520.77 400.49 520.48 399.25 C 520.02 397.24 520.34 397.00 523.48 397.00 L 527.00 397.00 L 527.00 376.35 L 533.00 377.23 L 533.00 402.00 L 529.50 402.00 C 527.58 402.00 526.00 402.25 526.00 402.56 C 526.00 402.87 527.32 408.38 528.94 414.81 C 530.56 421.24 532.79 430.55 533.88 435.50 C 534.98 440.45 537.95 453.50 540.48 464.50 C 543.00 475.50 546.62 491.25 548.51 499.50 C 550.40 507.75 552.24 515.51 552.59 516.75 Z M 827.18 517.25 C 827.91 518.69 827.63 519.00 825.59 519.00 C 824.23 519.00 822.90 518.65 822.64 518.22 C 821.87 516.98 818.50 503.16 813.55 481.00 C 811.04 469.73 805.70 446.33 801.71 429.00 L 794.44 397.50 L 801.50 396.50 L 801.78 386.36 L 802.07 376.22 L 804.53 377.36 C 806.93 378.48 806.98 378.75 806.99 390.25 L 807.00 402.00 L 804.00 402.00 C 802.35 402.00 801.00 402.18 801.00 402.39 C 801.00 402.88 809.71 441.70 818.52 480.50 C 822.14 496.45 825.37 510.85 825.69 512.50 C 826.02 514.15 826.68 516.29 827.18 517.25 Z M 293.00 402.05 L 293.00 511.00 L 288.00 511.00 L 288.00 397.00 L 295.12 397.00 L 294.81 386.00 C 294.62 379.11 294.87 375.01 295.50 375.02 C 296.05 375.03 297.53 375.84 298.78 376.80 C 300.97 378.48 301.05 379.08 300.78 390.53 L 300.50 402.50 L 296.75 402.27 Z M 201.04 598.00 L 200.50 636.50 L 196.46 636.80 C 194.24 636.96 192.11 636.77 191.71 636.38 C 191.32 635.99 191.00 627.19 191.00 616.83 L 191.00 598.00 L 178.00 598.00 L 178.00 590.00 L 214.00 590.00 L 214.00 598.00 Z M 651.00 597.00 L 651.00 635.00 L 646.67 635.00 C 644.28 635.00 642.03 634.70 641.67 634.33 C 641.30 633.97 641.00 625.42 641.00 615.33 L 641.00 597.00 L 629.21 597.00 L 628.45 589.00 L 664.00 589.00 L 664.00 597.00 Z M 304.82 633.10 L 304.50 636.50 L 291.95 636.78 C 285.04 636.93 279.08 636.74 278.70 636.36 C 278.31 635.98 278.00 625.39 278.00 612.83 L 278.00 590.00 L 288.00 590.00 L 288.00 628.00 L 290.25 628.09 C 291.49 628.13 294.75 628.12 297.50 628.07 C 303.90 627.93 305.23 628.85 304.82 633.10 Z M 564.00 533.66 L 564.00 546.00 L 530.54 546.00 C 498.47 546.00 497.03 545.92 496.04 544.07 C 495.47 543.00 495.00 541.65 495.00 541.07 C 495.00 540.33 504.87 540.00 526.50 540.00 L 558.00 540.00 L 558.00 529.50 C 558.00 523.72 558.20 519.00 558.45 519.00 C 558.70 519.00 560.05 519.52 561.45 520.16 C 563.98 521.31 564.00 521.41 564.00 533.66 Z M 838.00 521.00 L 838.00 546.00 L 770.95 546.00 L 769.98 543.43 C 769.44 542.02 769.00 540.68 769.00 540.44 C 769.00 540.20 782.94 540.04 799.98 540.08 C 817.02 540.11 831.45 539.84 832.05 539.47 C 832.77 539.03 832.96 535.76 832.63 529.90 L 832.12 521.00 Z M 227.00 521.00 L 227.00 546.00 L 169.14 546.00 L 164.86 540.00 L 221.00 540.00 L 221.00 521.00 Z M 165.00 590.00 L 165.00 637.00 L 160.67 637.00 C 158.28 637.00 156.03 636.70 155.67 636.33 C 155.30 635.97 155.00 625.39 155.00 612.83 L 155.00 590.00 Z M 415.78 533.75 L 416.06 546.00 L 387.28 545.88 C 371.45 545.82 357.71 545.56 356.75 545.31 C 355.69 545.03 355.00 543.90 355.00 542.43 L 355.00 540.00 L 410.00 540.00 L 410.00 520.87 L 412.75 521.18 L 415.50 521.50 Z M 615.00 589.00 L 615.00 635.00 L 610.67 635.00 C 608.28 635.00 606.03 634.70 605.67 634.33 C 605.30 633.97 605.00 623.62 605.00 611.33 L 605.00 589.00 Z M 329.04 590.00 L 328.50 636.50 L 324.46 636.80 C 322.24 636.96 320.11 636.77 319.71 636.38 C 319.32 635.99 319.00 625.39 319.00 612.83 L 319.00 590.00 Z M 481.00 521.00 L 481.00 546.00 L 454.67 546.00 C 440.18 546.00 428.03 545.70 427.67 545.33 C 427.30 544.97 427.00 543.62 427.00 542.33 L 427.00 540.00 L 475.00 540.00 L 475.00 521.00 Z M 860.43 413.66 C 855.17 424.01 850.78 432.55 850.68 432.65 C 850.58 432.75 849.15 432.10 847.50 431.21 C 845.85 430.33 840.67 428.15 836.00 426.38 C 829.48 423.91 827.43 422.67 827.18 421.08 C 827.00 419.94 827.18 419.00 827.57 419.00 C 827.96 419.00 832.32 420.60 837.26 422.55 C 842.20 424.50 846.36 425.96 846.51 425.80 C 846.66 425.63 850.89 417.50 855.89 407.73 C 865.56 388.87 866.40 385.76 863.44 379.70 C 861.92 376.60 862.00 376.63 865.94 380.71 C 869.58 384.48 870.00 385.44 870.00 389.89 C 870.00 394.19 868.71 397.38 860.43 413.66 Z M 755.00 534.04 L 755.00 546.00 L 729.17 546.00 C 714.96 546.00 703.03 545.70 702.67 545.33 C 702.30 544.97 702.00 543.62 702.00 542.33 L 702.00 540.00 L 749.00 540.00 L 749.00 530.00 C 749.00 519.71 749.31 519.03 753.07 521.04 C 754.81 521.97 755.00 523.23 755.00 534.04 Z M 624.00 533.50 L 624.00 546.00 L 599.54 546.00 C 576.37 546.00 575.02 545.90 574.04 544.07 C 573.47 543.00 573.00 541.65 573.00 541.07 C 573.00 540.34 580.39 540.00 596.00 540.00 L 619.00 540.00 L 619.00 529.89 C 619.00 521.09 619.20 519.86 620.58 520.39 C 621.45 520.73 622.58 521.00 623.08 521.00 C 623.59 521.00 624.00 526.58 624.00 533.50 Z M 694.78 533.75 L 695.06 546.00 L 654.23 546.00 L 652.61 543.54 C 651.73 542.18 651.00 540.83 651.00 540.54 C 651.00 540.24 659.55 540.00 670.00 540.00 L 689.00 540.00 L 689.00 520.87 L 691.75 521.18 L 694.50 521.50 Z M 958.00 402.00 L 958.00 426.00 L 949.75 425.86 C 945.21 425.79 940.38 425.52 939.00 425.27 C 936.39 424.80 933.00 422.30 933.00 420.85 C 933.00 420.38 937.22 420.00 942.37 420.00 L 951.74 420.00 L 952.41 414.94 C 952.78 412.16 953.02 402.59 952.95 393.69 C 952.85 382.49 953.15 377.53 953.91 377.60 C 955.00 377.70 955.80 377.70 956.39 378.05 C 958.01 379.02 958.01 382.70 958.00 398.72 C 958.00 399.76 958.00 400.85 958.00 402.00 Z M 747.01 515.75 C 747.00 518.88 746.85 519.00 742.98 519.00 C 742.64 519.00 742.32 519.01 742.03 519.01 C 740.91 519.03 740.18 519.05 739.79 518.69 C 739.04 517.99 739.60 515.89 741.23 509.73 C 741.45 508.90 741.69 507.99 741.95 507.00 L 743.66 500.50 L 757.58 495.85 C 765.24 493.28 772.06 491.15 772.75 491.10 C 773.47 491.04 774.00 492.17 774.00 493.76 C 774.00 496.99 772.83 497.62 758.68 502.04 C 749.28 504.98 749.06 505.12 748.05 508.77 C 747.48 510.82 747.01 513.96 747.01 515.75 Z M 472.02 516.75 C 472.00 518.65 471.46 519.00 468.50 519.00 C 464.30 519.00 464.24 518.51 467.31 508.00 L 469.50 500.50 L 483.50 495.85 C 491.20 493.28 498.06 491.15 498.75 491.10 C 499.47 491.04 500.00 492.17 500.00 493.76 C 500.00 496.95 497.36 498.39 484.95 501.97 C 480.85 503.15 476.87 504.45 476.10 504.86 C 474.59 505.65 472.04 513.07 472.02 516.75 Z M 617.11 493.89 C 617.06 513.79 616.76 519.54 615.77 519.68 C 612.08 520.21 612.00 519.55 612.05 488.67 L 612.09 458.50 L 614.64 463.39 C 617.18 468.28 617.18 468.34 617.11 493.89 Z M 649.00 435.37 C 649.00 436.27 648.55 437.00 648.00 437.00 C 647.45 437.00 640.03 423.05 631.50 406.00 C 622.16 387.33 616.52 375.00 617.32 375.00 C 619.83 375.00 622.84 379.53 629.27 393.00 C 632.82 400.42 638.71 412.63 642.36 420.12 C 646.01 427.61 649.00 434.47 649.00 435.37 Z M 760.35 464.05 C 758.67 465.73 752.75 467.11 753.25 465.71 C 753.49 465.04 755.18 458.99 757.00 452.25 C 758.82 445.51 760.63 440.00 761.02 440.00 C 761.75 440.00 764.00 449.94 764.00 453.17 C 764.00 454.18 763.44 454.89 762.75 454.75 C 761.92 454.58 761.47 455.92 761.42 458.78 C 761.37 461.14 760.89 463.51 760.35 464.05 Z M 484.30 464.91 C 480.64 466.58 478.67 466.31 479.46 464.25 C 479.83 463.29 481.23 458.36 482.58 453.30 C 483.92 448.25 485.39 443.12 485.83 441.92 C 486.60 439.84 486.72 439.90 488.00 443.01 C 490.63 449.34 488.30 463.09 484.30 464.91 Z M 235.97 618.25 C 235.99 618.66 238.67 619.00 241.94 619.00 C 245.21 619.00 248.09 618.66 248.34 618.25 C 248.91 617.31 243.05 601.00 242.14 601.00 C 241.51 601.00 235.90 616.66 235.97 618.25 Z M 359.45 616.25 L 358.78 619.00 L 365.39 619.00 C 369.03 619.00 372.00 618.86 372.00 618.69 C 372.00 617.13 366.01 602.50 365.26 602.25 C 364.35 601.95 360.92 610.20 359.45 616.25 Z M 900.86 514.19 C 901.90 516.28 902.47 517.96 902.12 517.92 C 898.86 517.51 895.56 512.45 892.97 503.91 L 891.15 497.88 L 894.32 498.19 C 897.40 498.49 897.52 498.68 898.24 504.44 C 898.64 507.70 899.82 512.09 900.86 514.19 Z M 745.00 398.31 C 745.00 399.03 744.44 400.37 743.75 401.29 C 742.69 402.71 742.13 402.78 740.01 401.71 C 738.64 401.02 737.37 399.67 737.19 398.72 C 736.91 397.32 737.61 397.00 740.93 397.00 C 743.62 397.00 745.00 397.44 745.00 398.31 Z M 470.05 399.91 C 468.50 402.80 464.20 402.70 463.10 399.75 C 462.32 397.68 462.57 397.48 466.23 397.19 C 470.99 396.81 471.51 397.18 470.05 399.91 Z M 246.00 400.00 C 246.00 403.50 244.80 403.80 242.00 401.00 C 239.20 398.20 239.50 397.00 243.00 397.00 C 245.67 397.00 246.00 397.33 246.00 400.00 Z M 361.00 399.50 C 361.00 400.88 360.66 401.94 360.25 401.86 C 355.62 401.02 355.00 400.67 355.00 398.93 C 355.00 397.45 355.70 397.00 358.00 397.00 C 360.53 397.00 361.00 397.39 361.00 399.50 Z M 578.00 399.50 C 578.00 401.26 577.46 402.00 576.17 402.00 C 573.85 402.00 573.00 401.15 573.00 398.83 C 573.00 397.54 573.74 397.00 575.50 397.00 C 577.50 397.00 578.00 397.50 578.00 399.50 Z M 172.00 399.00 C 172.00 400.43 171.33 401.00 169.67 401.00 C 167.02 401.00 166.00 400.26 166.00 398.33 C 166.00 397.52 167.17 397.00 169.00 397.00 C 171.33 397.00 172.00 397.44 172.00 399.00 Z M 58.00 399.50 C 58.00 400.88 57.89 401.94 57.75 401.86 C 57.61 401.79 56.49 401.53 55.25 401.29 C 51.98 400.66 52.19 397.00 55.50 397.00 C 57.50 397.00 58.00 397.50 58.00 399.50 Z M 648.00 399.50 L 648.00 399.68 C 648.00 400.97 648.00 401.65 647.72 401.80 C 647.41 401.97 646.76 401.52 645.39 400.56 L 645.22 400.44 C 642.29 398.39 642.41 397.00 645.50 397.00 C 647.50 397.00 648.00 397.50 648.00 399.50 Z" stroke-linecap="round"></path>
</g>
		<g id="7d5e2b0d-450d-4c40-85f6-32157f8f4dd7-child-1">
<path style="stroke: rgb(193,193,193); stroke-opacity: 1.00; stroke-width: 0; stroke-dasharray: none; stroke-linecap: butt; stroke-dashoffset: 0; stroke-linejoin: miter; stroke-miterlimit: 4; fill: rgb(161,154,144); fill-opacity: 1.00; fill-rule: nonzero; opacity: 1;" transform="matrix(0.307617 0 0 0.307617 249.999904 216.632128) matrix(1 0 0 1 -7 -26.397717)  translate(-505, -485.602284)" d="M 293.00 402.05 L 300.50 402.50 L 297.25 402.32 L 294.00 402.14 L 294.00 510.00 L 318.00 510.00 L 318.00 504.50 C 318.00 504.05 318.00 503.64 317.99 503.26 C 317.97 501.49 317.96 500.41 318.48 499.75 C 319.30 498.73 321.46 498.77 327.02 498.87 C 327.78 498.89 328.61 498.90 329.50 498.91 C 335.42 499.01 338.77 499.62 342.39 501.26 L 343.32 501.68 C 342.32 501.28 341.48 501.00 341.20 501.00 C 340.94 501.00 340.77 504.57 340.74 509.82 C 340.52 505.10 340.20 501.60 339.80 501.20 C 339.04 500.44 335.21 500.00 329.35 500.00 L 320.10 500.00 L 319.50 511.50 L 287.50 511.50 L 287.50 396.50 L 294.00 395.87 L 294.00 376.00 L 239.00 376.00 L 239.00 395.87 L 242.25 396.19 C 243.94 396.35 244.78 396.57 245.24 397.31 C 244.80 397.06 244.09 397.00 243.00 397.00 C 239.50 397.00 239.20 398.20 242.00 401.00 C 242.45 401.45 242.85 401.81 243.22 402.10 C 242.71 401.76 242.13 401.30 241.46 400.72 C 238.32 398.01 237.11 392.82 237.04 381.75 L 237.00 374.00 L 265.63 374.00 C 286.89 374.00 292.49 374.06 295.46 375.03 C 294.86 375.19 294.62 379.26 294.81 386.00 L 295.12 397.00 L 288.00 397.00 L 288.00 511.00 L 293.00 511.00 Z M 699.53 530.44 C 699.52 535.70 699.16 540.00 698.75 540.00 C 697.86 540.00 697.76 523.50 698.63 520.25 C 699.14 518.36 699.92 518.00 703.49 518.00 C 703.65 518.00 703.79 518.00 703.94 518.00 C 705.41 518.00 706.50 518.01 707.41 517.61 C 710.03 516.46 711.20 511.97 716.04 494.50 C 719.62 481.57 723.87 466.55 725.93 459.50 C 727.06 455.65 731.07 441.56 734.83 428.19 L 741.68 403.88 L 734.93 397.13 L 735.50 374.50 L 768.00 374.48 C 797.84 374.47 800.81 374.62 804.28 376.35 L 808.06 378.23 L 807.50 402.50 L 804.20 402.82 C 802.30 403.00 801.46 403.30 801.32 403.98 C 801.11 403.00 801.00 402.45 801.00 402.39 C 801.00 402.18 802.35 402.00 804.00 402.00 L 807.00 402.00 L 806.99 390.25 C 806.98 378.75 806.93 378.48 804.53 377.36 L 802.07 376.22 L 801.78 386.36 L 801.50 396.50 L 794.44 397.50 L 801.71 429.00 C 804.11 439.43 807.00 452.05 809.47 462.91 C 802.75 433.53 794.81 399.09 794.40 397.75 C 793.96 396.31 794.50 396.00 797.43 396.00 L 801.00 396.00 L 801.00 376.00 L 737.00 376.00 L 737.00 397.00 L 740.93 397.00 C 737.61 397.00 736.91 397.32 737.19 398.72 C 737.37 399.67 738.64 401.02 740.01 401.71 C 742.13 402.78 742.69 402.71 743.75 401.29 C 743.92 401.06 744.09 400.80 744.24 400.53 C 744.05 401.08 743.82 401.72 743.56 402.47 C 742.77 404.68 738.69 418.88 734.49 434.00 C 730.29 449.12 726.03 464.20 725.02 467.50 C 724.00 470.80 721.29 480.48 718.99 489.00 C 714.29 506.40 711.24 515.90 709.76 517.75 C 709.21 518.44 707.35 519.01 705.63 519.02 C 700.05 519.04 699.57 519.93 699.53 530.44 Z M 358.31 518.81 C 355.55 519.08 355.06 519.55 354.72 522.31 C 354.32 525.47 354.32 525.46 354.16 521.86 C 354.00 518.11 355.11 517.00 359.04 517.00 C 360.84 517.00 360.90 515.72 360.56 484.25 C 360.37 466.24 360.17 440.39 360.11 426.82 L 360.00 402.13 L 357.40 401.82 C 353.68 401.36 352.03 395.85 352.02 383.75 L 352.00 374.00 L 380.43 374.00 C 408.20 374.00 408.94 374.05 412.41 376.25 L 414.85 377.79 L 410.00 376.10 L 410.00 385.95 C 410.00 392.63 409.87 395.29 408.50 396.33 L 408.78 386.25 L 409.07 376.00 L 354.00 376.00 L 354.00 396.00 L 360.82 396.00 L 361.46 404.25 C 361.82 408.79 361.97 436.35 361.80 465.50 L 361.50 518.50 Z M 692.99 377.01 L 692.05 376.53 C 690.43 375.69 688.96 375.00 688.80 375.00 C 688.63 375.00 688.50 379.84 688.50 385.75 L 688.50 396.50 L 682.00 397.13 L 682.00 457.40 C 682.00 490.55 682.30 517.97 682.67 518.33 C 683.03 518.70 684.39 519.00 685.68 519.00 L 684.98 519.00 C 683.31 519.00 681.72 518.44 681.46 517.75 C 681.20 517.06 681.10 489.50 681.24 456.50 L 681.50 396.50 L 688.00 395.87 L 688.00 376.00 L 642.00 376.00 L 642.00 395.87 L 648.50 396.50 L 648.50 416.75 C 648.50 423.36 648.38 429.26 648.20 432.96 C 647.08 430.14 644.88 425.28 642.36 420.12 C 638.93 413.08 633.52 401.88 629.94 394.40 C 631.27 396.98 632.69 399.78 634.18 402.77 L 646.50 427.50 L 646.78 415.06 C 647.06 402.63 647.06 402.63 644.39 400.49 C 641.90 398.51 641.65 397.59 640.85 387.43 C 640.38 381.42 640.21 375.94 640.47 375.25 C 640.82 374.30 646.55 374.00 664.41 374.00 C 686.46 374.00 688.10 374.13 691.44 376.10 Z M 172.00 519.00 L 166.13 519.00 L 165.82 529.09 C 165.64 534.64 165.69 539.36 165.92 539.59 C 166.15 539.81 178.63 540.00 193.67 540.00 L 164.86 540.00 L 168.45 545.03 L 166.65 543.16 C 163.98 540.37 163.93 540.09 164.21 529.41 L 164.50 518.50 L 171.00 517.87 L 171.00 459.94 C 171.00 402.80 170.97 402.00 169.01 402.00 C 165.67 402.00 164.00 396.13 164.00 384.38 L 164.00 374.00 L 191.93 374.00 C 210.45 374.00 216.74 374.03 219.95 374.73 L 198.25 375.34 C 186.29 375.68 173.90 375.97 170.71 375.98 L 164.93 376.00 L 165.50 395.50 L 172.00 396.13 L 172.00 519.00 Z M 879.00 437.56 C 879.00 437.80 878.52 438.00 877.94 438.00 C 877.36 438.00 877.16 437.55 877.50 437.00 C 877.84 436.45 877.70 436.00 877.20 436.00 C 875.60 436.00 871.09 424.63 870.43 418.95 C 869.57 411.49 871.32 400.17 874.34 393.56 C 877.35 386.99 884.71 378.84 890.97 375.17 C 895.19 372.68 896.28 372.50 907.00 372.57 C 913.42 372.61 920.49 373.23 923.00 373.97 C 925.81 374.79 931.76 375.22 938.82 375.10 C 947.90 374.94 950.91 375.26 954.04 376.70 L 957.95 378.50 L 957.96 387.13 C 957.85 380.68 957.51 378.72 956.39 378.05 C 955.80 377.70 955.00 377.70 953.91 377.60 C 953.19 377.53 952.89 381.94 952.94 391.82 C 952.80 384.82 952.47 378.87 951.96 377.93 C 951.07 376.26 949.81 376.00 942.66 376.00 C 938.12 376.00 933.95 376.45 933.39 377.01 C 932.71 377.69 930.77 377.50 927.44 376.45 C 920.46 374.22 901.31 373.37 895.41 375.03 C 888.78 376.88 879.95 385.32 875.80 393.76 C 872.97 399.49 872.51 401.58 872.17 409.94 C 871.76 420.22 873.19 427.26 876.99 433.71 C 878.10 435.58 879.00 437.31 879.00 437.56 Z M 470.05 399.91 C 470.07 399.88 470.09 399.84 470.11 399.80 C 469.58 401.46 468.74 404.51 467.99 407.50 C 467.04 411.35 463.98 421.92 461.21 431.00 C 455.37 450.15 448.60 473.81 442.48 496.50 C 438.17 512.45 437.04 517.11 434.29 518.46 C 433.16 519.02 431.75 519.01 429.72 519.00 C 429.48 519.00 429.22 519.00 428.95 519.00 L 425.07 519.00 L 424.42 539.50 L 424.21 528.25 L 424.00 517.00 L 434.73 517.00 L 436.36 512.72 C 437.26 510.36 438.00 507.96 438.00 507.38 C 438.00 506.81 438.88 503.45 439.95 499.92 C 441.02 496.39 445.11 482.02 449.04 468.00 C 452.97 453.98 457.93 436.88 460.05 430.00 C 462.18 423.12 464.81 414.22 465.91 410.21 L 467.90 402.91 L 465.59 402.03 C 465.33 401.94 465.08 401.81 464.83 401.65 C 466.57 402.48 468.97 401.92 470.05 399.91 Z M 529.97 376.78 L 527.00 376.35 L 527.00 394.48 L 526.78 386.75 L 526.50 376.50 L 493.79 376.24 L 461.07 375.97 L 460.75 386.24 L 460.42 396.50 L 460.21 385.25 L 460.00 374.00 L 493.38 374.00 C 521.83 374.00 526.94 374.22 528.00 375.50 C 528.45 376.04 529.21 376.52 529.97 376.78 Z M 593.37 374.00 C 610.56 374.00 615.26 374.08 617.64 375.02 C 617.53 375.01 617.43 375.00 617.32 375.00 C 616.52 375.00 622.16 387.33 631.50 406.00 C 639.54 422.08 646.60 435.39 647.84 436.87 C 647.81 436.95 647.79 437.00 647.76 437.00 C 647.35 437.00 642.24 427.66 636.41 416.25 C 630.57 404.84 623.48 391.11 620.65 385.74 L 615.50 375.97 L 593.50 376.24 L 571.50 376.50 L 571.50 385.75 C 571.50 390.84 571.16 395.00 570.75 395.00 C 570.34 395.00 570.00 390.27 570.00 384.50 L 570.00 374.00 Z M 58.00 399.50 C 58.00 397.50 57.50 397.00 55.50 397.00 C 54.12 397.00 53.28 397.64 53.00 398.43 C 53.04 396.15 53.43 395.92 55.75 396.18 L 58.50 396.50 L 58.50 518.50 L 55.00 518.83 C 53.08 519.01 51.88 518.79 52.33 518.33 C 53.14 517.53 53.58 517.39 56.25 517.12 C 57.23 517.03 57.50 504.82 57.50 459.75 L 57.50 402.50 L 55.25 402.18 C 53.71 401.96 53.14 401.38 53.02 399.68 C 53.30 400.41 54.03 401.06 55.25 401.29 C 56.49 401.53 57.61 401.79 57.75 401.86 C 57.89 401.94 58.00 400.88 58.00 399.50 Z M 914.99 545.12 C 909.73 545.09 904.60 544.30 899.98 542.72 C 894.59 540.88 891.79 540.56 883.73 540.85 C 874.22 541.19 874.00 541.25 874.00 543.60 C 874.00 545.98 874.08 546.00 884.75 546.04 C 892.32 546.07 896.41 546.51 901.72 547.97 C 897.79 547.11 893.28 546.76 886.00 546.66 L 873.50 546.50 L 873.16 543.50 C 872.98 541.85 872.45 540.05 871.99 539.49 C 871.53 538.94 871.19 528.93 871.22 517.24 L 871.28 496.00 L 889.50 496.41 L 873.00 497.08 L 873.00 540.00 L 882.48 540.00 C 889.94 540.00 893.55 540.53 899.41 542.50 C 904.40 544.18 909.67 545.04 914.99 545.12 Z M 869.20 384.76 C 868.62 383.60 867.62 382.46 865.94 380.71 C 862.00 376.63 861.92 376.60 863.44 379.70 C 863.86 380.56 864.20 381.36 864.45 382.16 C 863.98 381.07 863.23 380.06 862.25 378.97 C 859.95 376.41 858.43 375.77 853.00 375.08 C 849.42 374.62 844.25 374.30 841.50 374.37 C 836.55 374.50 836.49 374.54 835.40 378.50 C 831.95 391.12 826.95 412.89 826.97 415.21 C 827.00 417.67 827.66 418.61 833.29 421.01 C 830.18 419.82 827.85 419.00 827.57 419.00 C 827.18 419.00 827.00 419.94 827.18 421.08 C 827.21 421.25 827.25 421.41 827.32 421.58 C 826.96 420.98 826.68 420.27 826.36 419.36 C 824.92 415.26 825.09 413.55 828.07 402.50 C 829.69 396.47 833.02 382.51 834.56 375.25 C 835.01 373.12 835.52 373.00 843.84 373.00 C 858.31 373.00 866.70 376.88 869.20 384.76 Z M 132.80 505.75 L 132.50 511.50 L 116.73 511.78 C 105.65 511.97 101.52 511.79 100.63 511.00 L 106.00 511.00 L 106.00 405.61 L 106.24 456.25 L 106.50 510.50 L 130.50 510.50 L 131.10 498.00 L 135.80 498.09 C 138.38 498.14 142.75 498.53 145.50 498.95 C 150.10 499.67 149.81 499.74 141.80 499.87 L 133.10 500.00 Z M 111.68 376.92 C 111.07 376.81 110.13 376.61 109.25 376.37 C 107.03 375.77 107.00 375.88 107.00 385.82 L 107.00 395.87 L 103.75 396.19 C 106.91 395.88 107.00 395.75 106.99 391.19 C 106.99 388.61 106.70 384.14 106.35 381.25 L 105.72 376.00 L 78.86 376.00 C 61.62 376.00 52.00 375.64 52.00 375.00 C 52.00 374.36 61.56 374.00 78.67 374.00 C 101.96 374.00 105.83 374.22 109.15 375.75 Z M 578.00 399.50 C 578.00 397.50 577.50 397.00 575.50 397.00 C 573.80 397.00 573.05 397.51 573.00 398.71 C 573.00 398.65 573.00 398.59 573.00 398.53 C 573.00 396.22 573.36 395.91 575.75 396.18 L 578.50 396.50 L 578.77 425.75 C 578.94 445.05 578.68 455.00 578.02 455.00 C 577.35 455.00 577.00 445.80 577.00 428.62 C 577.00 406.45 576.95 402.87 575.67 401.99 C 575.83 402.00 575.99 402.00 576.17 402.00 C 577.46 402.00 578.00 401.26 578.00 399.50 Z M 571.93 540.00 L 595.47 540.00 C 580.22 540.01 573.00 540.35 573.00 541.07 C 573.00 541.65 573.47 543.00 574.04 544.07 C 575.02 545.90 576.37 546.00 599.54 546.00 L 575.16 546.00 L 573.08 542.63 C 571.30 539.75 571.00 537.66 571.00 528.20 L 571.00 517.13 L 577.50 516.50 L 577.12 501.11 C 576.84 489.84 577.04 485.91 577.87 486.42 C 579.56 487.46 579.44 517.96 577.75 518.11 C 577.06 518.16 575.60 518.28 574.50 518.36 C 572.65 518.49 572.48 519.32 572.22 529.25 Z M 220.00 374.74 C 221.49 375.07 222.31 375.55 223.41 376.25 L 226.36 378.12 L 221.00 375.09 L 221.00 397.00 L 214.00 397.00 L 214.00 457.33 C 214.00 478.24 214.12 496.88 214.30 507.89 L 213.76 479.50 C 213.35 458.05 213.13 430.60 213.26 418.50 L 213.50 396.50 L 220.00 395.87 Z M 495.00 528.50 C 495.00 534.17 494.60 538.00 494.00 538.00 C 493.40 538.00 493.00 534.00 493.00 528.00 L 493.00 518.00 L 498.00 518.00 C 502.84 518.00 503.00 517.91 503.00 515.12 C 503.00 510.60 499.89 498.00 498.78 498.00 C 498.34 498.00 495.74 498.70 492.44 499.66 C 498.50 497.58 500.00 496.17 500.00 493.76 C 500.00 492.49 499.66 491.52 499.16 491.20 C 499.37 491.16 499.48 491.15 499.51 491.17 C 499.69 491.35 500.02 492.85 500.26 494.50 C 500.49 496.15 500.94 498.17 501.26 499.00 C 502.48 502.17 504.99 517.20 504.45 518.08 C 504.14 518.58 501.88 519.00 499.44 519.00 L 495.00 519.00 Z M 773.97 494.51 C 775.97 500.79 779.09 513.81 779.04 516.75 C 779.01 518.59 778.41 519.02 775.75 519.12 C 773.96 519.18 771.83 519.29 771.00 519.37 C 769.79 519.47 769.44 521.50 769.22 529.68 L 768.93 539.85 L 784.56 540.10 C 775.28 540.16 769.00 540.28 769.00 540.44 C 769.00 540.68 769.44 542.02 769.98 543.43 L 770.18 543.97 L 769.51 542.38 C 768.49 539.93 768.00 535.38 768.00 528.38 L 768.00 518.00 L 777.67 518.00 L 776.93 512.75 C 775.81 504.73 773.88 498.00 772.70 498.00 C 772.12 498.00 766.57 499.58 760.36 501.52 C 751.95 504.15 749.81 504.83 748.83 506.57 C 749.76 504.87 751.66 504.24 758.68 502.04 C 771.66 497.99 773.72 497.12 773.97 494.51 Z M 240.00 540.00 L 289.89 540.00 C 262.44 540.00 240.00 540.20 240.00 540.43 C 240.00 540.67 240.44 542.02 240.98 543.43 L 241.12 543.81 L 240.09 541.68 C 238.41 538.22 238.00 535.46 238.00 527.68 C 238.00 521.89 238.40 518.00 239.00 518.00 C 239.61 518.00 240.00 522.33 240.00 529.00 Z M 361.00 399.50 C 361.00 397.39 360.53 397.00 358.00 397.00 C 355.70 397.00 355.00 397.45 355.00 398.93 C 355.00 400.67 355.62 401.02 360.25 401.86 C 360.66 401.94 361.00 400.88 361.00 399.50 Z M 172.00 399.00 C 172.00 397.44 171.33 397.00 169.00 397.00 C 167.17 397.00 166.00 397.52 166.00 398.33 C 166.00 400.26 167.02 401.00 169.67 401.00 C 171.33 401.00 172.00 400.43 172.00 399.00 Z M 578.98 473.19 C 578.98 476.11 578.53 479.17 578.00 480.00 C 577.32 481.06 577.03 479.68 577.02 475.31 C 577.01 471.90 577.45 468.84 578.00 468.50 C 578.62 468.12 578.99 469.90 578.98 473.19 Z M 648.00 399.50 C 648.00 397.50 647.50 397.00 645.50 397.00 C 642.41 397.00 642.29 398.39 645.22 400.44 L 645.39 400.56 C 646.76 401.52 647.41 401.97 647.72 401.80 C 648.00 401.65 648.00 400.97 648.00 399.68 Z M 552.59 516.75 C 552.42 516.14 551.88 513.92 551.15 510.83 C 552.88 517.37 553.62 518.00 554.99 518.00 C 556.06 518.00 558.52 518.76 560.47 519.69 L 561.72 520.28 C 561.63 520.24 561.54 520.20 561.45 520.16 C 560.05 519.52 558.70 519.00 558.45 519.00 C 558.20 519.00 558.00 523.72 558.00 529.50 C 558.00 520.45 557.86 520.01 555.75 519.58 C 554.40 519.31 553.29 519.08 552.37 518.88 C 552.89 518.63 552.94 517.98 552.59 516.75 Z M 763.15 447.06 C 764.57 452.89 766.06 460.27 765.67 460.67 C 765.40 460.93 764.61 459.57 763.91 457.63 C 763.33 456.04 762.77 455.12 762.30 454.83 C 762.43 454.74 762.58 454.72 762.75 454.75 C 763.44 454.89 764.00 454.18 764.00 453.17 C 764.00 451.86 763.63 449.46 763.15 447.06 Z M 478.69 593.82 C 477.87 594.75 476.99 596.40 476.72 597.50 C 476.38 598.90 476.20 599.01 476.12 597.87 C 476.05 596.98 476.76 594.50 477.68 592.37 C 478.92 589.51 479.47 588.98 479.77 590.32 C 479.99 591.33 479.51 592.90 478.69 593.82 Z M 486.89 438.00 C 488.11 438.00 490.07 451.00 489.11 452.79 C 489.07 452.88 489.02 452.98 488.97 453.09 C 489.32 449.37 489.07 445.58 488.00 443.01 C 486.72 439.90 486.60 439.84 485.83 441.92 C 485.56 442.66 484.90 444.89 484.12 447.67 C 484.94 444.47 485.59 441.79 485.77 440.75 C 486.02 439.24 486.52 438.00 486.89 438.00 Z M 408.19 396.54 C 407.45 396.93 406.40 397.00 404.92 397.00 C 403.05 397.00 403.00 398.53 403.00 457.45 L 403.00 397.13 L 405.75 396.82 Z M 340.33 538.55 L 339.96 540.00 L 289.98 540.00 C 333.07 540.00 339.47 539.84 340.33 538.55 Z M 832.49 538.63 L 832.22 522.77 L 832.63 529.90 C 832.88 534.31 832.83 537.26 832.49 538.63 Z M 549.33 517.98 C 547.88 517.30 547.64 516.37 547.07 514.24 C 546.52 512.18 544.46 503.52 542.50 495.00 C 540.53 486.48 538.03 475.67 536.94 471.00 L 535.95 466.75 C 536.55 469.29 537.18 472.03 537.88 475.00 C 539.48 481.88 542.29 493.98 544.11 501.89 C 546.40 511.82 547.71 516.22 549.33 517.98 Z M 298.73 376.76 L 301.06 378.20 L 300.87 386.46 C 300.99 378.90 300.67 378.26 298.78 376.80 C 298.76 376.79 298.74 376.77 298.73 376.76 Z M 863.83 390.74 C 862.53 394.51 860.02 399.69 855.89 407.73 C 850.89 417.50 846.66 425.63 846.51 425.80 C 846.49 425.82 846.38 425.81 846.19 425.77 C 847.08 424.55 851.14 417.02 855.77 407.97 C 859.85 399.99 862.46 394.63 863.83 390.74 Z M 469.31 397.09 C 468.59 397.03 467.58 397.08 466.23 397.19 C 462.57 397.48 462.32 397.68 463.10 399.75 C 463.16 399.93 463.24 400.10 463.34 400.26 C 463.05 399.87 462.83 399.46 462.73 399.08 C 462.24 397.20 462.62 397.00 466.70 397.00 C 467.84 397.00 468.69 397.02 469.31 397.09 Z M 564.00 533.66 C 564.00 522.32 563.98 521.39 561.98 520.41 L 564.00 521.37 Z M 406.95 519.81 L 406.95 519.80 C 407.76 519.60 408.25 518.10 408.55 513.58 C 408.39 517.93 408.19 520.00 407.93 520.00 C 407.70 520.00 407.35 519.93 406.95 519.81 Z M 112.97 385.78 C 112.89 381.49 112.67 378.18 112.40 377.25 L 112.95 377.50 Z M 958.00 426.00 L 958.00 426.26 L 948.45 425.84 C 948.88 425.85 949.32 425.86 949.75 425.86 Z M 803.00 411.63 C 804.03 416.10 805.43 422.33 806.92 429.00 C 809.38 440.07 813.82 459.77 817.32 475.22 C 811.49 449.53 805.88 424.60 803.00 411.63 Z M 484.36 464.88 L 484.32 464.90 C 485.39 464.41 486.33 463.06 487.10 461.23 C 486.58 463.28 485.82 464.22 484.36 464.88 Z M 403.97 517.69 C 403.03 514.65 403.00 503.76 403.00 457.53 C 403.00 503.14 403.07 514.50 403.97 517.69 Z M 817.81 499.68 C 819.27 505.92 820.45 510.75 821.30 513.92 C 820.45 511.15 819.41 506.74 817.81 499.68 Z M 823.21 539.90 L 831.82 539.53 C 830.95 539.68 827.82 539.81 823.21 539.90 Z M 541.67 469.69 C 541.25 467.88 540.85 466.14 540.48 464.50 C 538.89 457.58 537.12 449.86 535.76 443.84 C 537.44 451.11 539.35 459.49 541.67 469.69 Z M 744.74 397.74 C 744.23 397.26 742.99 397.01 741.05 397.00 C 743.11 397.00 744.22 397.00 744.63 397.53 C 744.67 397.59 744.71 397.66 744.74 397.74 Z M 214.38 512.04 C 214.47 515.97 214.56 518.23 214.67 518.33 C 214.75 518.41 214.87 518.49 215.04 518.56 L 214.50 518.50 Z M 772.58 491.12 C 771.29 491.39 764.80 493.43 757.58 495.85 C 765.24 493.28 771.95 491.15 772.50 491.10 C 772.52 491.10 772.55 491.11 772.58 491.12 Z M 937.14 424.67 C 936.19 424.37 935.54 423.99 935.01 423.51 C 934.82 423.34 934.64 423.17 934.47 422.99 C 935.22 423.62 936.17 424.23 937.14 424.67 Z M 760.95 440.00 C 760.96 440.00 760.97 440.00 760.99 440.01 C 760.54 440.27 758.78 445.68 757.00 452.25 C 758.82 445.51 760.60 440.00 760.95 440.00 Z M 100.21 461.49 C 100.22 458.71 100.23 455.88 100.24 453.00 L 100.50 396.50 L 100.24 453.75 Z M 526.01 402.51 C 526.10 403.02 526.73 405.71 527.64 409.58 C 526.67 405.63 526.00 402.78 526.00 402.56 C 526.00 402.54 526.00 402.53 526.01 402.51 Z M 828.42 422.85 C 829.44 423.63 831.16 424.47 833.93 425.57 C 831.05 424.45 829.44 423.71 828.42 422.85 Z M 827.18 517.25 C 826.68 516.29 826.02 514.15 825.69 512.50 C 826.02 514.15 826.70 516.32 827.22 517.32 C 827.82 518.50 827.83 518.91 826.80 518.93 C 827.70 518.77 827.73 518.33 827.18 517.25 Z M 481.25 503.08 C 478.64 503.92 476.64 504.60 476.10 504.88 C 475.35 505.26 474.35 507.27 473.52 509.65 C 474.35 507.27 475.35 505.25 476.10 504.86 C 476.63 504.58 478.69 503.87 481.25 503.08 Z M 218.85 519.00 L 220.00 519.00 L 220.00 519.13 Z M 870.00 390.36 C 870.00 391.32 869.89 392.30 869.58 393.51 C 869.88 392.27 869.99 391.22 870.00 390.12 Z M 245.82 401.86 C 245.71 402.46 245.48 402.78 245.09 402.85 C 245.43 402.74 245.67 402.42 245.82 401.86 Z M 952.17 416.78 L 951.74 420.00 L 951.73 420.00 Z M 760.39 464.01 C 760.38 464.02 760.38 464.02 760.37 464.03 C 760.58 463.81 760.78 463.31 760.95 462.65 C 760.81 463.29 760.62 463.78 760.39 464.01 Z M 909.07 549.88 C 910.18 550.10 911.29 550.28 912.40 550.43 C 911.27 550.28 910.16 550.10 909.07 549.88 Z" stroke-linecap="round"></path>
</g>
		<g id="7d5e2b0d-450d-4c40-85f6-32157f8f4dd7-child-2">
<path style="stroke: rgb(193,193,193); stroke-opacity: 1.00; stroke-width: 0; stroke-dasharray: none; stroke-linecap: butt; stroke-dashoffset: 0; stroke-linejoin: miter; stroke-miterlimit: 4; fill: rgb(163,25,30); fill-opacity: 1.00; fill-rule: nonzero; opacity: 1;" transform="matrix(0.307617 0 0 0.307617 249.999904 216.632128) matrix(1 0 0 1 -2.05 1.459749)  translate(-509.95, -513.45975)" d="M 683.80 530.22 L 683.50 535.50 L 668.71 535.78 L 653.91 536.05 L 651.81 531.28 C 650.65 528.65 642.06 510.52 632.73 491.00 C 623.40 471.48 614.25 452.13 612.41 448.01 C 610.57 443.89 608.62 440.37 608.07 440.19 C 607.43 439.98 607.16 454.33 607.29 481.17 L 607.50 522.48 L 610.50 523.00 C 613.38 523.49 613.51 523.74 613.80 529.26 L 614.10 535.00 L 575.90 535.00 L 576.20 529.26 C 576.45 524.44 576.82 523.46 578.50 523.15 C 579.20 523.02 579.80 522.96 580.30 522.71 C 583.00 521.36 583.00 514.59 583.00 462.97 L 583.00 457.50 L 583.00 452.03 C 583.00 400.41 583.00 393.64 580.30 392.29 C 579.80 392.04 579.20 391.98 578.50 391.85 C 576.82 391.54 576.45 390.56 576.20 385.72 L 575.90 379.96 L 594.70 380.23 L 613.50 380.50 L 632.10 417.95 C 642.32 438.55 651.21 455.57 651.85 455.78 C 652.70 456.07 653.00 448.16 653.00 425.21 C 653.00 392.69 653.00 392.67 648.50 391.85 C 646.82 391.54 646.45 390.56 646.20 385.74 L 645.90 380.00 L 684.10 380.00 L 683.80 385.74 C 683.51 391.26 683.38 391.51 680.50 392.00 L 677.50 392.52 L 677.24 457.24 L 676.99 521.97 L 680.55 523.45 C 684.06 524.92 684.10 525.02 683.80 530.22 Z M 468.75 535.09 C 461.48 535.58 431.06 535.73 430.60 535.27 C 430.27 534.94 430.00 532.04 430.00 528.83 L 430.00 523.00 L 433.43 523.00 C 437.68 523.00 440.45 519.81 442.45 512.59 C 456.22 462.85 468.66 419.27 473.09 405.20 C 476.61 394.04 476.17 392.27 469.75 391.81 L 465.50 391.50 L 464.90 380.00 L 521.82 380.00 L 522.49 383.96 C 523.47 389.71 522.49 391.82 518.70 392.19 C 514.07 392.64 514.14 394.87 519.48 417.74 C 524.39 438.77 528.59 456.91 537.50 495.44 C 540.72 509.39 543.71 520.13 544.67 521.19 C 545.64 522.26 547.70 523.00 549.70 523.00 L 553.10 523.00 L 552.50 535.50 L 531.00 535.56 C 519.17 535.59 507.14 535.43 504.25 535.19 L 499.00 534.77 L 499.00 524.12 L 503.53 523.44 C 506.16 523.05 508.41 522.08 508.91 521.13 C 509.45 520.10 508.52 513.38 506.42 503.00 C 504.58 493.92 503.06 486.11 503.04 485.62 C 502.98 484.36 498.48 485.44 482.05 490.63 C 474.05 493.15 466.79 496.02 465.93 497.00 C 464.04 499.14 458.59 519.49 459.36 521.50 C 459.68 522.32 462.03 523.20 464.95 523.59 L 470.00 524.26 L 470.00 529.63 C 470.00 533.21 469.58 535.03 468.75 535.09 Z M 735.80 535.34 C 724.94 536.19 705.52 536.18 704.67 535.33 C 704.30 534.97 704.00 532.27 704.00 529.33 C 704.00 524.17 704.09 524.00 706.78 524.00 C 711.65 524.00 713.78 521.51 716.45 512.71 C 719.24 503.54 734.46 450.28 736.52 442.50 C 737.25 439.75 740.19 429.62 743.05 420.00 C 750.41 395.24 750.45 395.05 749.19 393.79 C 748.59 393.19 746.39 392.43 744.30 392.09 L 740.50 391.47 L 740.20 385.74 L 739.90 380.00 L 797.10 380.00 L 796.80 385.75 C 796.50 391.48 796.49 391.50 793.01 392.00 C 790.73 392.33 789.41 393.11 789.19 394.26 C 789.00 395.22 790.93 404.90 793.46 415.76 C 804.60 463.43 814.66 508.02 815.58 513.78 C 816.41 518.96 819.36 522.99 822.32 523.02 C 823.52 523.02 825.02 523.36 825.66 523.77 C 826.64 524.39 827.42 530.34 827.09 534.77 C 827.02 535.76 821.27 535.98 800.25 535.77 L 773.50 535.50 L 773.20 529.75 L 772.90 524.00 L 777.33 524.00 C 783.78 524.00 784.56 522.61 783.10 513.73 C 780.76 499.55 776.78 485.00 775.24 485.00 C 771.93 485.00 741.38 495.40 739.93 497.02 C 738.09 499.08 733.69 516.76 734.17 520.16 C 734.45 522.13 735.22 522.58 739.00 523.00 L 743.50 523.50 L 743.80 529.10 L 744.09 534.70 Z M 927.46 538.47 C 918.60 540.78 907.68 540.44 900.89 537.65 C 897.81 536.38 893.91 534.36 892.24 533.17 C 888.38 530.42 888.00 530.45 888.00 533.50 C 888.00 535.86 887.70 536.00 882.50 536.00 L 877.00 536.00 L 877.00 501.00 L 886.63 501.00 L 888.32 506.36 C 891.96 517.91 899.31 523.93 909.79 523.98 C 926.28 524.05 937.18 504.80 929.45 489.27 C 928.04 486.45 923.16 480.18 918.59 475.32 C 898.60 454.08 882.87 435.35 879.72 429.02 C 876.73 423.00 876.50 421.83 876.52 412.52 C 876.54 403.84 876.90 401.75 879.16 396.87 C 882.55 389.58 888.10 383.51 894.44 380.17 C 899.01 377.76 900.53 377.50 910.00 377.52 C 921.21 377.55 928.58 379.31 933.44 383.13 L 936.00 385.15 L 936.00 382.57 C 936.00 380.12 936.26 380.00 941.50 380.00 L 947.00 380.00 L 947.20 393.50 C 947.31 400.92 947.42 408.69 947.45 410.75 L 947.50 414.50 L 942.34 414.80 L 937.19 415.10 L 935.94 411.30 C 932.55 400.96 924.15 393.00 916.63 393.00 C 911.78 393.00 910.15 393.82 908.46 397.07 C 905.31 403.17 907.01 408.80 914.03 415.50 C 918.19 419.48 942.79 446.18 950.64 455.25 C 959.17 465.10 964.00 477.67 964.00 490.00 C 964.00 513.17 949.19 532.81 927.46 538.47 Z M 336.05 504.00 L 335.50 535.25 L 302.00 535.38 C 283.58 535.44 262.99 535.37 256.25 535.22 L 244.00 534.94 L 244.00 528.97 C 244.00 523.25 244.11 523.00 246.53 523.00 C 247.92 523.00 249.27 522.44 249.52 521.75 C 250.55 518.96 250.57 394.79 249.54 393.47 C 248.97 392.74 247.38 392.00 246.00 391.82 C 243.70 391.53 243.48 391.04 243.20 385.75 L 242.90 380.00 L 290.10 380.00 L 289.80 385.74 C 289.51 391.26 289.38 391.51 286.50 392.00 L 283.50 392.52 L 283.50 515.50 L 302.50 515.77 L 302.63 515.77 C 316.79 515.98 321.57 516.05 323.18 513.82 C 324.00 512.69 324.00 510.96 324.00 508.36 L 324.00 504.00 Z M 147.78 519.70 L 147.50 535.50 L 102.43 535.76 C 77.64 535.90 57.05 535.72 56.68 535.34 C 56.30 534.97 56.00 532.35 56.00 529.51 C 56.00 524.66 56.19 524.28 59.25 522.93 L 62.50 521.50 L 62.50 392.52 L 59.50 392.00 C 56.62 391.51 56.49 391.26 56.20 385.74 L 55.90 380.00 L 102.10 380.00 L 101.80 385.74 C 101.51 391.26 101.38 391.51 98.50 392.00 L 95.50 392.52 L 95.22 452.01 C 95.07 484.73 95.19 512.51 95.49 513.75 C 96.04 515.99 96.13 516.00 115.97 516.00 L 135.90 516.00 L 136.20 510.25 L 136.50 504.50 L 142.28 504.20 L 148.05 503.90 Z M 215.80 529.84 L 215.50 535.50 L 194.50 535.64 C 182.95 535.72 172.71 535.58 171.75 535.32 C 170.35 534.95 170.00 533.75 170.00 529.40 C 170.00 524.18 170.12 523.93 172.91 523.37 C 175.54 522.84 175.85 522.35 176.20 518.14 C 177.04 508.20 176.33 393.93 175.43 393.08 C 174.92 392.59 173.60 392.03 172.50 391.84 C 170.85 391.54 170.41 390.48 169.99 385.74 L 169.48 380.00 L 216.10 380.00 L 215.80 385.74 C 215.51 391.26 215.38 391.51 212.50 392.00 L 209.50 392.52 L 209.24 457.18 L 208.99 521.84 L 212.54 523.01 L 216.09 524.19 Z M 404.98 529.75 L 405.00 535.00 L 358.90 535.00 L 359.20 529.26 C 359.45 524.44 359.82 523.46 361.50 523.15 C 362.21 523.02 362.81 522.96 363.31 522.70 C 366.00 521.35 366.00 514.64 366.00 464.15 C 366.00 462.46 366.00 460.72 366.00 458.92 C 366.00 414.89 365.67 396.38 364.86 394.60 C 364.15 393.04 362.75 391.99 361.11 391.80 C 358.67 391.52 358.48 391.12 358.20 385.75 L 357.90 380.00 L 405.10 380.00 L 404.80 385.74 C 404.51 391.26 404.38 391.51 401.50 392.00 L 398.50 392.52 L 398.50 521.50 L 401.73 523.00 C 404.76 524.41 404.96 524.82 404.98 529.75 Z M 512.18 646.82 C 504.66 650.33 492.07 650.94 484.30 648.19 C 465.63 641.56 454.65 621.63 459.42 603.02 C 462.43 591.27 469.31 583.09 480.64 577.79 C 503.12 567.27 528.51 580.34 534.05 605.28 C 537.54 621.03 527.80 639.54 512.18 646.82 Z M 845.25 417.25 C 844.48 418.76 843.55 419.97 843.18 419.94 C 841.24 419.78 831.52 414.34 831.63 413.49 C 831.70 412.95 833.41 405.52 835.42 397.00 C 837.43 388.48 839.31 380.43 839.59 379.13 C 840.06 376.92 840.46 376.79 845.80 377.18 C 848.93 377.41 853.30 378.47 855.50 379.55 C 859.20 381.35 859.49 381.80 859.43 385.51 C 859.38 388.37 857.54 393.11 853.01 402.01 C 849.51 408.88 846.02 415.74 845.25 417.25 Z M 746.00 473.42 C 746.00 474.23 749.56 473.34 760.43 469.83 C 770.44 466.59 771.96 465.68 771.42 463.21 C 771.22 462.27 769.22 453.40 766.98 443.50 C 764.75 433.60 762.69 424.42 762.40 423.11 C 762.11 421.73 761.52 421.09 761.03 421.61 C 760.56 422.10 757.63 431.50 754.53 442.50 C 746.44 471.15 746.00 472.74 746.00 473.42 Z M 472.00 473.16 L 472.00 473.19 C 472.00 473.41 472.00 473.58 472.08 473.70 C 472.45 474.21 474.44 473.56 485.24 470.04 L 485.64 469.91 C 497.11 466.18 498.16 465.64 497.73 463.66 C 496.06 455.93 487.74 422.42 487.40 422.08 C 487.18 421.85 486.82 421.85 486.60 422.08 C 486.11 422.59 472.00 471.96 472.00 473.16 Z M 478.69 593.82 C 479.51 592.90 479.99 591.33 479.77 590.32 C 479.47 588.98 478.92 589.51 477.68 592.37 C 476.76 594.50 476.05 596.98 476.12 597.87 C 476.20 599.01 476.38 598.90 476.72 597.50 C 476.78 597.23 476.89 596.93 477.02 596.62 C 477.01 596.78 477.00 596.96 477.00 597.15 C 477.00 599.65 482.87 608.00 484.62 608.00 C 485.33 608.00 487.51 610.10 489.47 612.66 C 492.95 617.22 492.99 617.37 491.32 619.91 C 486.42 627.35 480.89 638.28 481.38 639.55 C 482.44 642.32 484.02 640.95 489.74 632.30 C 492.91 627.52 495.95 623.47 496.50 623.31 C 497.05 623.15 500.36 627.06 503.85 632.00 C 509.69 640.28 512.00 642.11 512.00 638.47 C 512.00 637.69 509.06 632.71 505.46 627.40 L 498.91 617.75 L 505.47 610.96 C 514.47 601.63 518.47 591.88 514.80 588.20 C 512.57 585.97 511.40 586.98 506.55 595.25 C 503.90 599.79 500.35 605.70 498.67 608.39 L 495.61 613.28 L 492.37 609.42 C 489.88 606.45 489.26 604.94 489.69 602.82 C 490.08 600.86 489.42 598.79 487.37 595.54 C 485.79 593.05 484.15 591.00 483.72 591.00 C 483.28 591.00 483.23 593.25 483.59 596.00 C 484.40 602.04 482.66 602.83 480.42 597.46 C 479.64 595.59 478.77 594.63 478.10 594.60 C 478.29 594.31 478.49 594.05 478.69 593.82 Z" stroke-linecap="round"></path>
</g>
		<g id="7d5e2b0d-450d-4c40-85f6-32157f8f4dd7-child-3">
<path style="stroke: rgb(193,193,193); stroke-opacity: 1.00; stroke-width: 0; stroke-dasharray: none; stroke-linecap: butt; stroke-dashoffset: 0; stroke-linejoin: miter; stroke-miterlimit: 4; fill: rgb(253,254,253); fill-opacity: 1.00; fill-rule: nonzero; opacity: 1;" transform="matrix(0.307617 0 0 0.307617 249.999904 216.632128) matrix(1 0 0 1 0 0)  translate(-512, -512)" d="M 0.00 512.00 L 0.00 0.00 L 512.00 0.00 L 1024.00 0.00 L 1024.00 512.00 L 1024.00 1024.00 L 512.00 1024.00 L 0.00 1024.00 L 0.00 512.00 Z M 512.18 646.82 C 527.80 639.54 537.54 621.03 534.05 605.28 C 528.51 580.34 503.12 567.27 480.64 577.79 C 469.31 583.09 462.43 591.27 459.42 603.02 C 454.65 621.63 465.63 641.56 484.30 648.19 C 492.07 650.94 504.66 650.33 512.18 646.82 Z M 165.00 613.50 L 165.00 590.00 L 160.00 590.00 L 155.00 590.00 L 155.00 612.83 C 155.00 625.39 155.30 635.97 155.67 636.33 C 156.03 636.70 158.28 637.00 160.67 637.00 L 165.00 637.00 L 165.00 613.50 Z M 200.77 617.25 L 201.04 598.00 L 207.52 598.00 L 214.00 598.00 L 214.00 594.00 L 214.00 590.00 L 196.00 590.00 L 178.00 590.00 L 178.00 594.00 L 178.00 598.00 L 184.50 598.00 L 191.00 598.00 L 191.00 616.83 C 191.00 627.19 191.32 635.99 191.71 636.38 C 192.11 636.77 194.24 636.96 196.46 636.80 L 200.50 636.50 L 200.77 617.25 Z M 230.78 631.75 L 232.12 627.00 L 241.82 627.00 L 251.53 627.00 L 253.31 632.00 C 255.06 636.95 255.13 637.00 259.37 637.00 C 261.74 637.00 263.92 636.75 264.23 636.43 C 264.54 636.12 262.99 631.29 260.79 625.68 C 258.58 620.08 255.76 612.58 254.52 609.00 C 253.28 605.42 251.22 599.69 249.94 596.25 L 247.60 590.00 L 242.28 590.00 C 237.70 590.00 236.83 590.31 236.04 592.25 C 228.05 611.82 219.21 635.53 219.63 636.22 C 219.93 636.70 222.27 636.97 224.81 636.80 C 229.41 636.50 229.45 636.47 230.78 631.75 Z M 304.82 633.10 C 305.23 628.85 303.90 627.93 297.50 628.07 C 294.75 628.12 291.49 628.13 290.25 628.09 L 288.00 628.00 L 288.00 609.00 L 288.00 590.00 L 283.00 590.00 L 278.00 590.00 L 278.00 612.83 C 278.00 625.39 278.31 635.98 278.70 636.36 C 279.08 636.74 285.04 636.93 291.95 636.78 L 304.50 636.50 L 304.82 633.10 Z M 328.77 613.25 L 329.04 590.00 L 324.02 590.00 L 319.00 590.00 L 319.00 612.83 C 319.00 625.39 319.32 635.99 319.71 636.38 C 320.11 636.77 322.24 636.96 324.46 636.80 L 328.50 636.50 L 328.77 613.25 Z M 354.11 632.00 L 355.76 627.50 L 365.29 627.21 L 374.82 626.93 L 376.04 630.71 C 376.71 632.80 377.71 635.06 378.25 635.75 C 379.38 637.17 388.00 637.48 388.00 636.09 C 388.00 635.59 384.59 626.48 380.42 615.84 C 376.25 605.20 372.35 595.04 371.75 593.25 C 370.70 590.10 370.50 590.00 365.03 590.00 C 359.43 590.00 359.40 590.02 358.07 593.75 C 357.34 595.81 353.60 605.60 349.77 615.50 C 340.42 639.65 340.73 637.17 347.09 636.81 C 352.45 636.50 352.45 636.50 354.11 632.00 Z M 411.00 622.04 L 411.50 607.58 L 422.08 622.04 L 432.66 636.50 L 437.08 636.50 L 441.50 636.50 L 441.77 613.25 L 442.04 590.00 L 437.02 590.00 L 432.00 590.00 L 432.00 604.00 C 432.00 611.70 431.66 617.97 431.25 617.94 C 430.84 617.91 426.07 611.61 420.66 603.94 L 410.82 590.00 L 405.91 590.00 L 401.00 590.00 L 401.00 612.83 C 401.00 625.39 401.32 635.99 401.71 636.38 C 402.11 636.77 404.24 636.96 406.46 636.80 L 410.50 636.50 L 411.00 622.04 Z M 707.50 634.62 C 711.23 633.47 711.48 633.16 711.22 629.99 C 711.07 628.13 710.77 626.44 710.56 626.23 C 710.36 626.02 708.46 626.33 706.34 626.92 C 697.52 629.37 689.48 626.70 685.57 620.01 C 682.76 615.19 682.76 606.14 685.58 602.36 C 689.45 597.18 692.69 595.50 698.82 595.51 C 701.94 595.52 705.67 595.89 707.10 596.33 C 709.39 597.05 709.85 596.77 710.99 594.01 C 711.96 591.68 712.00 590.60 711.15 589.75 C 709.48 588.08 692.98 587.52 688.53 588.99 C 683.68 590.59 678.41 595.30 675.75 600.41 C 672.77 606.14 672.78 616.89 675.78 622.65 C 681.28 633.22 695.10 638.43 707.50 634.62 Z M 564.00 625.00 C 564.00 619.11 564.40 615.00 564.98 615.00 C 565.52 615.00 569.42 619.50 573.65 625.00 L 581.33 635.00 L 586.66 635.00 C 590.47 635.00 592.00 634.61 592.00 633.65 C 592.00 632.91 589.40 629.20 586.22 625.40 C 583.05 621.61 579.17 616.82 577.61 614.76 L 574.78 611.02 L 582.89 600.28 C 587.35 594.37 591.00 589.19 591.00 588.77 C 591.00 588.34 588.54 588.00 585.53 588.00 C 580.86 588.00 579.88 588.34 578.78 590.30 C 576.30 594.76 565.57 607.85 564.79 607.37 C 564.36 607.10 564.00 602.63 564.00 597.44 C 564.00 587.03 564.15 587.22 557.12 588.62 L 554.00 589.25 L 554.00 611.46 C 554.00 623.67 554.30 633.97 554.67 634.33 C 555.03 634.70 557.28 635.00 559.67 635.00 L 564.00 635.00 L 564.00 625.00 Z M 615.00 612.00 L 615.00 589.00 L 610.00 589.00 L 605.00 589.00 L 605.00 611.33 C 605.00 623.62 605.30 633.97 605.67 634.33 C 606.03 634.70 608.28 635.00 610.67 635.00 L 615.00 635.00 L 615.00 612.00 Z M 651.00 616.00 L 651.00 597.00 L 657.50 597.00 L 664.00 597.00 L 664.00 593.00 L 664.00 589.00 L 646.22 589.00 L 628.45 589.00 L 628.83 593.00 L 629.21 597.00 L 635.11 597.00 L 641.00 597.00 L 641.00 615.33 C 641.00 625.42 641.30 633.97 641.67 634.33 C 642.03 634.70 644.28 635.00 646.67 635.00 L 651.00 635.00 L 651.00 616.00 Z M 735.79 625.25 L 736.08 616.00 L 743.29 615.99 C 747.25 615.98 751.50 615.71 752.71 615.38 C 754.87 614.80 754.93 615.02 755.21 624.64 L 755.50 634.50 L 760.00 634.50 L 764.50 634.50 L 764.77 611.75 L 765.04 589.00 L 760.02 589.00 L 755.00 589.00 L 755.00 598.00 L 755.00 607.00 L 745.50 607.00 L 736.00 607.00 L 736.00 598.00 L 736.00 589.00 L 731.00 589.00 L 726.00 589.00 L 726.00 611.33 C 726.00 623.62 726.32 633.99 726.71 634.38 C 727.11 634.77 729.24 634.96 731.46 634.80 L 735.50 634.50 L 735.79 625.25 Z M 809.81 630.75 L 810.12 627.00 L 800.56 627.00 L 791.00 627.00 L 791.00 621.00 L 791.00 615.00 L 800.00 615.00 L 809.00 615.00 L 809.00 611.54 L 809.00 608.08 L 800.25 607.79 L 791.50 607.50 L 791.20 602.29 L 790.90 597.08 L 800.20 596.79 L 809.50 596.50 L 809.81 592.75 L 810.12 589.00 L 795.56 589.00 L 781.00 589.00 L 781.00 611.33 C 781.00 623.62 781.31 633.98 781.69 634.36 C 782.08 634.74 788.49 634.93 795.94 634.78 L 809.50 634.50 L 809.81 630.75 Z M 834.10 633.75 C 834.15 633.06 834.11 626.54 834.01 619.25 C 833.89 610.56 834.19 606.00 834.88 606.00 C 835.45 606.00 837.82 608.81 840.13 612.25 C 842.44 615.69 847.01 622.21 850.28 626.75 L 856.23 635.00 L 860.87 635.00 L 865.50 635.00 L 865.79 612.00 L 866.07 589.00 L 861.04 589.00 L 856.00 589.00 L 856.00 602.50 C 856.00 609.92 855.66 615.98 855.25 615.96 C 854.84 615.94 850.08 609.86 844.67 602.46 L 834.83 589.00 L 829.92 589.00 L 825.00 589.00 L 825.00 612.00 L 825.00 635.00 L 829.50 635.00 C 832.38 635.00 834.04 634.55 834.10 633.75 Z M 931.50 549.49 C 953.87 544.79 971.13 525.83 974.07 502.75 C 975.72 489.86 974.10 478.84 969.05 468.50 C 965.74 461.71 962.30 457.40 946.33 440.00 C 935.98 428.73 925.67 417.70 923.42 415.50 C 918.41 410.60 916.70 407.54 917.51 404.96 C 918.29 402.50 922.61 402.33 925.18 404.66 C 928.79 407.93 928.23 404.95 924.58 401.51 C 918.82 396.08 912.00 396.87 912.00 402.98 C 912.00 406.50 913.77 408.85 925.55 421.00 C 937.18 432.99 953.12 450.60 957.69 456.51 C 962.10 462.22 966.61 471.63 967.90 477.80 C 969.40 485.00 969.27 498.42 967.64 504.50 C 964.09 517.75 951.74 533.56 940.50 539.25 C 927.70 545.72 912.58 546.92 899.41 542.50 C 893.55 540.53 889.94 540.00 882.48 540.00 L 873.00 540.00 L 873.00 518.54 L 873.00 497.08 L 881.25 496.74 L 889.50 496.41 L 880.39 496.20 L 871.28 496.00 L 871.22 517.24 C 871.19 528.93 871.53 538.94 871.99 539.49 C 872.45 540.05 872.98 541.85 873.16 543.50 L 873.50 546.50 L 886.00 546.66 C 895.36 546.78 900.13 547.33 905.00 548.84 C 912.80 551.26 922.01 551.49 931.50 549.49 Z M 159.00 524.00 L 159.00 502.00 L 156.00 502.00 L 153.00 502.00 L 153.00 521.00 L 153.00 540.00 L 103.00 540.00 C 54.09 540.00 53.00 540.04 53.00 541.95 C 53.00 543.02 53.79 544.36 54.75 544.92 C 55.87 545.58 74.80 545.95 107.75 545.97 L 159.00 546.00 L 159.00 524.00 Z M 227.00 533.50 L 227.00 521.00 L 224.00 521.00 L 221.00 521.00 L 221.00 530.50 L 221.00 540.00 L 193.67 540.00 C 178.63 540.00 166.15 539.81 165.92 539.59 C 165.69 539.36 165.64 534.64 165.82 529.09 L 166.13 519.00 L 169.07 519.00 L 172.00 519.00 L 172.00 457.56 L 172.00 396.13 L 168.75 395.81 L 165.50 395.50 L 165.21 385.75 L 164.93 376.00 L 170.71 375.98 C 173.90 375.97 186.29 375.68 198.25 375.34 L 220.00 374.73 L 220.00 385.30 L 220.00 395.87 L 216.75 396.19 L 213.50 396.50 L 213.26 418.50 C 213.13 430.60 213.35 458.05 213.76 479.50 L 214.50 518.50 L 217.25 518.82 L 220.00 519.13 L 220.00 460.63 L 220.00 402.13 L 223.25 401.81 L 226.50 401.50 L 226.73 390.00 L 226.96 378.50 L 223.41 376.25 C 219.95 374.06 219.18 374.00 191.93 374.00 L 164.00 374.00 L 164.00 384.38 C 164.00 396.13 165.67 402.00 169.01 402.00 C 170.97 402.00 171.00 402.80 171.00 459.94 L 171.00 517.87 L 167.75 518.19 L 164.50 518.50 L 164.21 529.41 C 163.93 540.09 163.98 540.37 166.65 543.16 L 169.37 546.00 L 198.19 546.00 L 227.00 546.00 L 227.00 533.50 Z M 346.00 537.25 C 346.01 532.44 346.30 522.87 346.65 515.99 L 347.28 503.48 L 342.39 501.26 C 338.77 499.62 335.42 499.01 329.50 498.91 C 317.04 498.72 318.00 498.25 318.00 504.50 L 318.00 510.00 L 306.00 510.00 L 294.00 510.00 L 294.00 456.07 L 294.00 402.14 L 297.25 402.32 L 300.50 402.50 L 300.78 390.35 L 301.06 378.20 L 297.66 376.10 C 294.42 374.09 292.97 374.00 265.63 374.00 L 237.00 374.00 L 237.04 381.75 C 237.11 392.82 238.32 398.01 241.46 400.72 C 245.08 403.83 246.18 403.58 245.81 399.75 C 245.54 396.89 245.11 396.46 242.25 396.19 L 239.00 395.87 L 239.00 385.94 L 239.00 376.00 L 266.50 376.00 L 294.00 376.00 L 294.00 385.94 L 294.00 395.87 L 290.75 396.19 L 287.50 396.50 L 287.50 454.00 L 287.50 511.50 L 303.50 511.50 L 319.50 511.50 L 319.80 505.75 L 320.10 500.00 L 329.35 500.00 C 335.21 500.00 339.04 500.44 339.80 501.20 C 341.07 502.47 341.59 535.30 340.39 538.42 C 339.85 539.83 334.47 540.00 289.89 540.00 L 240.00 540.00 L 240.00 529.00 C 240.00 522.33 239.61 518.00 239.00 518.00 C 238.40 518.00 238.00 521.89 238.00 527.68 C 238.00 535.46 238.41 538.22 240.09 541.68 L 242.18 546.00 L 294.09 546.00 L 346.00 546.00 L 346.00 537.25 Z M 415.78 533.75 L 415.50 521.50 L 412.75 521.18 L 410.00 520.87 L 410.00 530.43 L 410.00 540.00 L 382.50 540.00 L 355.00 540.00 L 355.00 542.43 C 355.00 543.90 355.69 545.03 356.75 545.31 C 357.71 545.56 371.45 545.82 387.28 545.88 L 416.06 546.00 L 415.78 533.75 Z M 481.00 533.50 L 481.00 521.00 L 478.00 521.00 L 475.00 521.00 L 475.00 530.50 L 475.00 540.00 L 451.00 540.00 L 427.00 540.00 L 427.00 542.33 C 427.00 543.62 427.30 544.97 427.67 545.33 C 428.03 545.70 440.18 546.00 454.67 546.00 L 481.00 546.00 L 481.00 533.50 Z M 564.00 533.69 L 564.00 521.37 L 560.47 519.69 C 558.52 518.76 556.06 518.00 554.99 518.00 C 552.72 518.00 552.19 516.29 546.03 489.00 C 537.88 452.83 533.83 435.29 529.94 419.18 C 527.77 410.21 526.00 402.67 526.00 402.43 C 526.00 402.19 527.58 402.00 529.50 402.00 L 533.00 402.00 L 533.00 389.50 C 533.00 377.94 532.86 377.00 531.12 377.00 C 530.09 377.00 528.68 376.33 528.00 375.50 C 526.94 374.22 521.83 374.00 493.38 374.00 L 460.00 374.00 L 460.21 385.25 L 460.42 396.50 L 460.75 386.24 L 461.07 375.97 L 493.79 376.24 L 526.50 376.50 L 526.78 386.75 L 527.07 397.00 L 523.52 397.00 C 520.34 397.00 520.02 397.24 520.48 399.25 C 520.77 400.49 523.05 410.50 525.54 421.50 C 529.70 439.84 531.07 445.82 536.94 471.00 C 538.03 475.67 540.53 486.48 542.50 495.00 C 544.46 503.52 546.52 512.18 547.07 514.24 C 548.09 518.05 548.05 518.02 555.75 519.58 C 557.90 520.02 558.00 520.47 558.00 530.02 L 558.00 540.00 L 526.50 540.00 C 504.87 540.00 495.00 540.33 495.00 541.07 C 495.00 541.65 495.47 543.00 496.04 544.07 C 497.03 545.92 498.47 546.00 530.54 546.00 L 564.00 546.00 L 564.00 533.69 Z M 624.00 533.50 C 624.00 526.58 623.59 521.00 623.08 521.00 C 622.58 521.00 621.45 520.73 620.58 520.39 C 619.20 519.86 619.00 521.09 619.00 529.89 L 619.00 540.00 L 595.47 540.00 L 571.93 540.00 L 572.22 529.25 C 572.48 519.32 572.65 518.49 574.50 518.36 C 575.60 518.28 577.06 518.16 577.75 518.11 C 579.44 517.96 579.56 487.46 577.87 486.42 C 577.04 485.91 576.84 489.84 577.12 501.11 L 577.50 516.50 L 574.25 516.81 L 571.00 517.13 L 571.00 528.20 C 571.00 537.66 571.30 539.75 573.08 542.63 L 575.16 546.00 L 599.58 546.00 L 624.00 546.00 L 624.00 533.50 Z M 694.78 533.75 L 694.50 521.50 L 691.75 521.18 L 689.00 520.87 L 689.00 530.43 L 689.00 540.00 L 670.00 540.00 C 659.55 540.00 651.00 540.24 651.00 540.54 C 651.00 540.83 651.73 542.18 652.61 543.54 L 654.23 546.00 L 674.65 546.00 L 695.06 546.00 L 694.78 533.75 Z M 755.00 534.04 C 755.00 523.23 754.81 521.97 753.07 521.04 C 749.31 519.03 749.00 519.71 749.00 530.00 L 749.00 540.00 L 725.50 540.00 L 702.00 540.00 L 702.00 542.33 C 702.00 543.62 702.30 544.97 702.67 545.33 C 703.03 545.70 714.96 546.00 729.17 546.00 L 755.00 546.00 L 755.00 534.04 Z M 838.00 533.50 L 838.00 521.00 L 835.09 521.00 L 832.19 521.00 L 832.34 530.25 L 832.50 539.50 L 821.00 540.00 C 814.67 540.28 800.37 540.35 789.22 540.18 L 768.93 539.85 L 769.22 529.68 C 769.44 521.50 769.79 519.47 771.00 519.37 C 771.83 519.29 773.96 519.18 775.75 519.12 C 778.41 519.02 779.01 518.59 779.04 516.75 C 779.11 512.83 773.54 491.00 772.50 491.10 C 771.95 491.15 765.24 493.28 757.58 495.85 L 743.66 500.50 L 741.95 507.00 C 738.52 520.06 738.43 519.00 742.98 519.00 C 746.85 519.00 747.00 518.88 747.01 515.75 C 747.01 513.96 747.48 510.82 748.05 508.77 C 749.08 505.07 749.15 505.02 760.36 501.52 C 766.57 499.58 772.12 498.00 772.70 498.00 C 773.88 498.00 775.81 504.73 776.93 512.75 L 777.67 518.00 L 772.83 518.00 L 768.00 518.00 L 768.00 528.38 C 768.00 535.38 768.49 539.93 769.51 542.38 L 771.03 546.00 L 804.51 546.00 L 838.00 546.00 L 838.00 533.50 Z M 699.53 530.44 C 699.57 519.93 700.05 519.04 705.63 519.02 C 707.35 519.01 709.21 518.44 709.76 517.75 C 711.24 515.90 714.29 506.40 718.99 489.00 C 721.29 480.48 724.00 470.80 725.02 467.50 C 726.03 464.20 730.29 449.12 734.49 434.00 C 738.69 418.88 742.77 404.68 743.56 402.47 C 745.52 396.98 745.53 397.00 741.00 397.00 L 737.00 397.00 L 737.00 386.50 L 737.00 376.00 L 769.00 376.00 L 801.00 376.00 L 801.00 386.00 L 801.00 396.00 L 797.43 396.00 C 794.50 396.00 793.96 396.31 794.40 397.75 C 794.97 399.63 810.48 467.06 816.47 493.72 C 821.92 518.00 822.08 518.44 825.36 518.82 C 827.77 519.10 828.02 518.90 827.22 517.32 C 826.70 516.32 826.02 514.15 825.69 512.50 C 825.37 510.85 822.14 496.45 818.52 480.50 C 814.89 464.55 809.67 441.38 806.92 429.00 C 804.16 416.62 801.68 405.74 801.40 404.82 C 801.02 403.52 801.66 403.06 804.20 402.82 L 807.50 402.50 L 807.78 390.37 L 808.06 378.23 L 804.28 376.35 C 800.81 374.62 797.84 374.47 768.00 374.48 L 735.50 374.50 L 735.22 385.82 L 734.93 397.13 L 738.31 400.51 L 741.68 403.88 L 734.83 428.19 C 731.07 441.56 727.06 455.65 725.93 459.50 C 723.87 466.55 719.62 481.57 716.04 494.50 C 709.36 518.60 709.68 518.00 703.49 518.00 C 699.92 518.00 699.14 518.36 698.63 520.25 C 697.76 523.50 697.86 540.00 698.75 540.00 C 699.16 540.00 699.52 535.70 699.53 530.44 Z M 927.46 538.47 C 949.19 532.81 964.00 513.17 964.00 490.00 C 964.00 477.67 959.17 465.10 950.64 455.25 C 942.79 446.18 918.19 419.48 914.03 415.50 C 907.01 408.80 905.31 403.17 908.46 397.07 C 910.15 393.82 911.78 393.00 916.63 393.00 C 924.15 393.00 932.55 400.96 935.94 411.30 L 937.19 415.10 L 942.34 414.80 L 947.50 414.50 L 947.45 410.75 C 947.42 408.69 947.31 400.92 947.20 393.50 L 947.00 380.00 L 941.50 380.00 C 936.26 380.00 936.00 380.12 936.00 382.57 L 936.00 385.15 L 933.44 383.13 C 928.58 379.31 921.21 377.55 910.00 377.52 C 900.53 377.50 899.01 377.76 894.44 380.17 C 888.10 383.51 882.55 389.58 879.16 396.87 C 876.90 401.75 876.54 403.84 876.52 412.52 C 876.50 421.83 876.73 423.00 879.72 429.02 C 882.87 435.35 898.60 454.08 918.59 475.32 C 923.16 480.18 928.04 486.45 929.45 489.27 C 937.18 504.80 926.28 524.05 909.79 523.98 C 899.31 523.93 891.96 517.91 888.32 506.36 L 886.63 501.00 L 881.82 501.00 L 877.00 501.00 L 877.00 518.50 L 877.00 536.00 L 882.50 536.00 C 887.70 536.00 888.00 535.86 888.00 533.50 C 888.00 530.45 888.38 530.42 892.24 533.17 C 893.91 534.36 897.81 536.38 900.89 537.65 C 907.68 540.44 918.60 540.78 927.46 538.47 Z M 428.95 519.00 C 436.68 519.00 436.18 519.83 442.48 496.50 C 448.60 473.81 455.37 450.15 461.21 431.00 C 463.98 421.92 467.04 411.35 467.99 407.50 C 468.95 403.65 470.07 399.71 470.47 398.75 C 471.12 397.23 470.61 397.00 466.70 397.00 C 462.62 397.00 462.24 397.20 462.73 399.08 C 463.03 400.22 464.31 401.55 465.59 402.03 L 467.90 402.91 L 465.91 410.21 C 464.81 414.22 462.18 423.12 460.05 430.00 C 457.93 436.88 452.97 453.98 449.04 468.00 C 445.11 482.02 441.02 496.39 439.95 499.92 C 438.88 503.45 438.00 506.81 438.00 507.38 C 438.00 507.96 437.26 510.36 436.36 512.72 L 434.73 517.00 L 429.36 517.00 L 424.00 517.00 L 424.21 528.25 L 424.42 539.50 L 424.75 529.25 L 425.07 519.00 L 428.95 519.00 Z M 495.00 528.50 L 495.00 519.00 L 499.44 519.00 C 501.88 519.00 504.14 518.58 504.45 518.08 C 504.99 517.20 502.48 502.17 501.26 499.00 C 500.94 498.17 500.49 496.15 500.26 494.50 C 500.02 492.85 499.69 491.35 499.51 491.17 C 499.33 490.99 492.50 493.02 484.34 495.67 L 469.50 500.50 L 467.31 508.00 C 464.24 518.51 464.30 519.00 468.50 519.00 C 471.46 519.00 472.00 518.65 472.02 516.75 C 472.04 513.06 474.59 505.65 476.10 504.88 C 477.97 503.92 497.50 498.00 498.78 498.00 C 499.89 498.00 503.00 510.60 503.00 515.12 C 503.00 517.91 502.84 518.00 498.00 518.00 L 493.00 518.00 L 493.00 528.00 C 493.00 534.00 493.40 538.00 494.00 538.00 C 494.60 538.00 495.00 534.17 495.00 528.50 Z M 147.78 519.70 L 148.05 503.90 L 142.28 504.20 L 136.50 504.50 L 136.20 510.25 L 135.90 516.00 L 115.97 516.00 C 96.13 516.00 96.04 515.99 95.49 513.75 C 95.19 512.51 95.07 484.73 95.22 452.01 L 95.50 392.52 L 98.50 392.00 C 101.38 391.51 101.51 391.26 101.80 385.74 L 102.10 380.00 L 79.00 380.00 L 55.90 380.00 L 56.20 385.74 C 56.49 391.26 56.62 391.51 59.50 392.00 L 62.50 392.52 L 62.50 457.01 L 62.50 521.50 L 59.25 522.93 C 56.19 524.28 56.00 524.66 56.00 529.51 C 56.00 532.35 56.30 534.97 56.68 535.34 C 57.05 535.72 77.64 535.90 102.43 535.76 L 147.50 535.50 L 147.78 519.70 Z M 215.80 529.84 L 216.09 524.19 L 212.54 523.01 L 208.99 521.84 L 209.24 457.18 L 209.50 392.52 L 212.50 392.00 C 215.38 391.51 215.51 391.26 215.80 385.74 L 216.10 380.00 L 192.79 380.00 L 169.48 380.00 L 169.99 385.74 C 170.41 390.48 170.85 391.54 172.50 391.84 C 173.60 392.03 174.92 392.59 175.43 393.08 C 176.33 393.93 177.04 508.20 176.20 518.14 C 175.85 522.35 175.54 522.84 172.91 523.37 C 170.12 523.93 170.00 524.18 170.00 529.40 C 170.00 533.75 170.35 534.95 171.75 535.32 C 172.71 535.58 182.95 535.72 194.50 535.64 L 215.50 535.50 L 215.80 529.84 Z M 335.78 519.63 L 336.05 504.00 L 330.03 504.00 L 324.00 504.00 L 324.00 508.31 C 324.00 516.10 324.04 516.08 302.50 515.77 L 283.50 515.50 L 283.50 454.01 L 283.50 392.52 L 286.50 392.00 C 289.38 391.51 289.51 391.26 289.80 385.74 L 290.10 380.00 L 266.50 380.00 L 242.90 380.00 L 243.20 385.75 C 243.48 391.04 243.70 391.53 246.00 391.82 C 247.38 392.00 248.97 392.74 249.54 393.47 C 250.57 394.79 250.55 518.96 249.52 521.75 C 249.27 522.44 247.92 523.00 246.53 523.00 C 244.11 523.00 244.00 523.25 244.00 528.97 L 244.00 534.94 L 256.25 535.22 C 262.99 535.37 283.58 535.44 302.00 535.38 L 335.50 535.25 L 335.78 519.63 Z M 468.75 535.09 C 469.58 535.03 470.00 533.21 470.00 529.63 L 470.00 524.26 L 464.95 523.59 C 462.03 523.20 459.68 522.32 459.36 521.50 C 458.59 519.49 464.04 499.14 465.93 497.00 C 466.79 496.02 474.05 493.15 482.05 490.63 C 498.48 485.44 502.98 484.36 503.04 485.62 C 503.06 486.11 504.58 493.92 506.42 503.00 C 508.52 513.38 509.45 520.10 508.91 521.13 C 508.41 522.08 506.16 523.05 503.53 523.44 L 499.00 524.12 L 499.00 529.45 L 499.00 534.77 L 504.25 535.19 C 507.14 535.43 519.17 535.59 531.00 535.56 L 552.50 535.50 L 552.80 529.25 L 553.10 523.00 L 549.70 523.00 C 547.70 523.00 545.64 522.26 544.67 521.19 C 543.71 520.13 540.72 509.39 537.50 495.44 C 528.59 456.91 524.39 438.77 519.48 417.74 C 514.14 394.87 514.07 392.64 518.70 392.19 C 522.49 391.82 523.47 389.71 522.49 383.96 L 521.82 380.00 L 493.36 380.00 L 464.90 380.00 L 465.20 385.75 L 465.50 391.50 L 469.75 391.81 C 476.17 392.27 476.61 394.04 473.09 405.20 C 468.66 419.27 456.22 462.85 442.45 512.59 C 440.45 519.81 437.68 523.00 433.43 523.00 L 430.00 523.00 L 430.00 528.83 C 430.00 532.04 430.27 534.94 430.60 535.27 C 431.06 535.73 461.48 535.58 468.75 535.09 Z M 683.80 530.22 C 684.10 525.02 684.06 524.92 680.55 523.45 L 676.99 521.97 L 677.24 457.24 L 677.50 392.52 L 680.50 392.00 C 683.38 391.51 683.51 391.26 683.80 385.74 L 684.10 380.00 L 665.00 380.00 L 645.90 380.00 L 646.20 385.74 C 646.45 390.56 646.82 391.54 648.50 391.85 C 653.00 392.67 653.00 392.69 653.00 425.21 C 653.00 448.16 652.70 456.07 651.85 455.78 C 651.21 455.57 642.32 438.55 632.10 417.95 L 613.50 380.50 L 594.70 380.23 L 575.90 379.96 L 576.20 385.72 C 576.45 390.56 576.82 391.54 578.50 391.85 C 583.13 392.70 583.00 390.75 583.00 457.50 C 583.00 524.25 583.13 522.30 578.50 523.15 C 576.82 523.46 576.45 524.44 576.20 529.26 L 575.90 535.00 L 595.00 535.00 L 614.10 535.00 L 613.80 529.26 C 613.51 523.74 613.38 523.49 610.50 523.00 L 607.50 522.48 L 607.29 481.17 C 607.16 454.33 607.43 439.98 608.07 440.19 C 608.62 440.37 610.57 443.89 612.41 448.01 C 614.25 452.13 623.40 471.48 632.73 491.00 C 642.06 510.52 650.65 528.65 651.81 531.28 L 653.91 536.05 L 668.71 535.78 L 683.50 535.50 L 683.80 530.22 Z M 735.80 535.34 L 744.09 534.70 L 743.80 529.10 L 743.50 523.50 L 739.00 523.00 C 735.22 522.58 734.45 522.13 734.17 520.16 C 733.69 516.76 738.09 499.08 739.93 497.02 C 741.38 495.40 771.93 485.00 775.24 485.00 C 776.78 485.00 780.76 499.55 783.10 513.73 C 784.56 522.61 783.78 524.00 777.33 524.00 L 772.90 524.00 L 773.20 529.75 L 773.50 535.50 L 800.25 535.77 C 821.27 535.98 827.02 535.76 827.09 534.77 C 827.42 530.34 826.64 524.39 825.66 523.77 C 825.02 523.36 823.52 523.02 822.32 523.02 C 819.36 522.99 816.41 518.96 815.58 513.78 C 814.66 508.02 804.60 463.43 793.46 415.76 C 790.93 404.90 789.00 395.22 789.19 394.26 C 789.41 393.11 790.73 392.33 793.01 392.00 C 796.49 391.50 796.50 391.48 796.80 385.75 L 797.10 380.00 L 768.50 380.00 L 739.90 380.00 L 740.20 385.74 L 740.50 391.47 L 744.30 392.09 C 746.39 392.43 748.59 393.19 749.19 393.79 C 750.45 395.05 750.41 395.24 743.05 420.00 C 740.19 429.62 737.25 439.75 736.52 442.50 C 734.46 450.28 719.24 503.54 716.45 512.71 C 713.78 521.51 711.65 524.00 706.78 524.00 C 704.09 524.00 704.00 524.17 704.00 529.33 C 704.00 532.27 704.30 534.97 704.67 535.33 C 705.52 536.18 724.94 536.19 735.80 535.34 Z M 404.98 529.75 C 404.96 524.82 404.76 524.41 401.73 523.00 L 398.50 521.50 L 398.50 457.01 L 398.50 392.52 L 401.50 392.00 C 404.38 391.51 404.51 391.26 404.80 385.74 L 405.10 380.00 L 381.50 380.00 L 357.90 380.00 L 358.20 385.75 C 358.48 391.12 358.67 391.52 361.11 391.80 C 362.75 391.99 364.15 393.04 364.86 394.60 C 365.67 396.38 366.00 414.89 366.00 458.92 C 366.00 524.17 366.13 522.30 361.50 523.15 C 359.82 523.46 359.45 524.44 359.20 529.26 L 358.90 535.00 L 381.95 535.00 L 405.00 535.00 L 404.98 529.75 Z M 358.31 518.81 L 361.50 518.50 L 361.80 465.50 C 361.97 436.35 361.82 408.79 361.46 404.25 L 360.82 396.00 L 357.41 396.00 L 354.00 396.00 L 354.00 386.00 L 354.00 376.00 L 381.53 376.00 L 409.07 376.00 L 408.78 386.25 L 408.50 396.50 L 405.75 396.82 L 403.00 397.13 L 403.00 457.53 C 403.00 516.22 403.05 517.96 404.93 518.96 C 406.00 519.53 407.35 520.00 407.93 520.00 C 408.68 520.00 409.00 502.11 409.00 461.06 L 409.00 402.13 L 412.25 401.81 L 415.50 401.50 L 415.73 390.00 L 415.96 378.50 L 412.41 376.25 C 408.94 374.05 408.20 374.00 380.43 374.00 L 352.00 374.00 L 352.02 383.75 C 352.03 395.85 353.68 401.36 357.40 401.82 L 360.00 402.13 L 360.11 426.82 C 360.17 440.39 360.37 466.24 360.56 484.25 C 360.90 515.72 360.84 517.00 359.04 517.00 C 355.11 517.00 354.00 518.11 354.16 521.86 C 354.32 525.46 354.32 525.47 354.72 522.31 C 355.06 519.55 355.55 519.08 358.31 518.81 Z M 617.11 493.89 C 617.18 468.34 617.18 468.28 614.64 463.39 L 612.09 458.50 L 612.05 488.67 C 612.00 519.55 612.08 520.21 615.77 519.68 C 616.76 519.54 617.06 513.79 617.11 493.89 Z M 58.50 457.50 L 58.50 396.50 L 55.75 396.18 C 53.29 395.90 53.00 396.18 53.00 398.86 C 53.00 401.21 53.49 401.93 55.25 402.18 L 57.50 402.50 L 57.50 459.75 C 57.50 504.82 57.23 517.03 56.25 517.12 C 53.58 517.39 53.14 517.53 52.33 518.33 C 51.88 518.79 53.08 519.01 55.00 518.83 L 58.50 518.50 L 58.50 457.50 Z M 687.98 460.75 L 687.92 402.50 L 691.46 402.19 L 695.00 401.88 L 695.00 390.04 L 695.00 378.20 L 691.44 376.10 C 688.10 374.13 686.46 374.00 664.41 374.00 C 646.55 374.00 640.82 374.30 640.47 375.25 C 640.21 375.94 640.38 381.42 640.85 387.43 C 641.65 397.59 641.90 398.51 644.39 400.49 C 647.06 402.63 647.06 402.63 646.78 415.06 L 646.50 427.50 L 634.18 402.77 C 626.62 387.60 620.86 377.25 619.29 376.02 C 616.89 374.13 615.27 374.00 593.37 374.00 L 570.00 374.00 L 570.00 384.50 C 570.00 390.27 570.34 395.00 570.75 395.00 C 571.16 395.00 571.50 390.84 571.50 385.75 L 571.50 376.50 L 593.50 376.24 L 615.50 375.97 L 620.65 385.74 C 623.48 391.11 630.57 404.84 636.41 416.25 C 642.24 427.66 647.35 437.00 647.76 437.00 C 648.17 437.00 648.50 427.89 648.50 416.75 L 648.50 396.50 L 645.25 396.19 L 642.00 395.87 L 642.00 385.94 L 642.00 376.00 L 665.00 376.00 L 688.00 376.00 L 688.00 385.94 L 688.00 395.87 L 684.75 396.19 L 681.50 396.50 L 681.24 456.50 C 681.10 489.50 681.20 517.06 681.46 517.75 C 681.72 518.44 683.31 519.00 684.98 519.00 L 688.03 519.00 L 687.98 460.75 Z M 900.86 514.19 C 899.82 512.09 898.64 507.70 898.24 504.44 C 897.52 498.68 897.40 498.49 894.32 498.19 L 891.15 497.88 L 892.97 503.91 C 895.56 512.45 898.86 517.51 902.12 517.92 C 902.47 517.96 901.90 516.28 900.86 514.19 Z M 132.80 505.75 L 133.10 500.00 L 141.80 499.87 C 149.81 499.74 150.10 499.67 145.50 498.95 C 142.75 498.53 138.38 498.14 135.80 498.09 L 131.10 498.00 L 130.80 504.25 L 130.50 510.50 L 118.50 510.50 L 106.50 510.50 L 106.24 456.25 L 105.98 402.00 L 109.49 402.00 L 113.00 402.00 L 112.97 389.75 L 112.95 377.50 L 109.15 375.75 C 105.83 374.22 101.96 374.00 78.67 374.00 C 61.56 374.00 52.00 374.36 52.00 375.00 C 52.00 375.64 61.62 376.00 78.86 376.00 L 105.72 376.00 L 106.35 381.25 C 106.70 384.14 106.99 388.61 106.99 391.19 C 107.00 395.75 106.91 395.88 103.75 396.19 L 100.50 396.50 L 100.24 453.00 C 100.10 484.08 100.20 510.07 100.47 510.78 C 100.84 511.75 104.66 511.99 116.73 511.78 L 132.50 511.50 L 132.80 505.75 Z M 578.98 473.19 C 578.99 469.90 578.62 468.12 578.00 468.50 C 577.45 468.84 577.01 471.90 577.02 475.31 C 577.03 479.68 577.32 481.06 578.00 480.00 C 578.53 479.17 578.98 476.11 578.98 473.19 Z M 578.77 425.75 L 578.50 396.50 L 575.75 396.18 C 573.36 395.91 573.00 396.22 573.00 398.53 C 573.00 400.35 573.63 401.35 575.00 401.71 C 576.94 402.22 577.00 403.07 577.00 428.62 C 577.00 445.80 577.35 455.00 578.02 455.00 C 578.68 455.00 578.94 445.05 578.77 425.75 Z M 879.00 437.56 C 879.00 437.31 878.10 435.58 876.99 433.71 C 873.19 427.26 871.76 420.22 872.17 409.94 C 872.51 401.58 872.97 399.49 875.80 393.76 C 879.95 385.32 888.78 376.88 895.41 375.03 C 901.31 373.37 920.46 374.22 927.44 376.45 C 930.77 377.50 932.71 377.69 933.39 377.01 C 933.95 376.45 938.12 376.00 942.66 376.00 C 949.81 376.00 951.07 376.26 951.96 377.93 C 953.10 380.05 953.40 407.84 952.36 415.36 L 951.73 420.00 L 942.36 420.00 C 937.21 420.00 933.00 420.38 933.00 420.85 C 933.00 421.31 933.90 422.51 935.01 423.51 C 936.60 424.95 939.22 425.43 947.51 425.80 L 958.00 426.26 L 957.97 402.38 L 957.95 378.50 L 954.04 376.70 C 950.91 375.26 947.90 374.94 938.82 375.10 C 931.76 375.22 925.81 374.79 923.00 373.97 C 920.49 373.23 913.42 372.61 907.00 372.57 C 896.28 372.50 895.19 372.68 890.97 375.17 C 884.71 378.84 877.35 386.99 874.34 393.56 C 871.32 400.17 869.57 411.49 870.43 418.95 C 871.09 424.63 875.60 436.00 877.20 436.00 C 877.70 436.00 877.84 436.45 877.50 437.00 C 877.16 437.55 877.36 438.00 877.94 438.00 C 878.52 438.00 879.00 437.80 879.00 437.56 Z M 860.43 413.66 C 868.31 398.17 870.00 394.06 870.00 390.36 C 870.00 378.71 861.40 373.00 843.84 373.00 C 835.52 373.00 835.01 373.12 834.56 375.25 C 833.02 382.51 829.69 396.47 828.07 402.50 C 825.09 413.55 824.92 415.26 826.36 419.36 C 827.63 422.97 828.27 423.43 836.11 426.41 C 840.72 428.17 845.85 430.33 847.50 431.21 C 849.15 432.10 850.58 432.75 850.68 432.65 C 850.78 432.55 855.17 424.01 860.43 413.66 Z M 481.38 639.55 C 480.89 638.28 486.42 627.35 491.32 619.91 C 492.99 617.37 492.95 617.22 489.47 612.66 C 487.51 610.10 485.33 608.00 484.62 608.00 C 482.87 608.00 477.00 599.65 477.00 597.15 C 477.00 593.61 478.88 593.79 480.42 597.46 C 482.66 602.83 484.40 602.04 483.59 596.00 C 483.23 593.25 483.28 591.00 483.72 591.00 C 484.15 591.00 485.79 593.05 487.37 595.54 C 489.42 598.79 490.08 600.86 489.69 602.82 C 489.26 604.94 489.88 606.45 492.37 609.42 L 495.61 613.28 L 498.67 608.39 C 500.35 605.70 503.90 599.79 506.55 595.25 C 511.40 586.98 512.57 585.97 514.80 588.20 C 518.47 591.88 514.47 601.63 505.47 610.96 L 498.91 617.75 L 505.46 627.40 C 509.06 632.71 512.00 637.69 512.00 638.47 C 512.00 642.11 509.69 640.28 503.85 632.00 C 500.36 627.06 497.05 623.15 496.50 623.31 C 495.95 623.47 492.91 627.52 489.74 632.30 C 484.02 640.95 482.44 642.32 481.38 639.55 Z M 235.97 618.25 C 235.90 616.66 241.51 601.00 242.14 601.00 C 243.05 601.00 248.91 617.31 248.34 618.25 C 248.09 618.66 245.21 619.00 241.94 619.00 C 238.67 619.00 235.99 618.66 235.97 618.25 Z M 359.45 616.25 C 360.92 610.20 364.35 601.95 365.26 602.25 C 366.01 602.50 372.00 617.13 372.00 618.69 C 372.00 618.86 369.03 619.00 365.39 619.00 L 358.78 619.00 L 359.45 616.25 Z M 472.00 473.16 C 472.00 471.96 486.11 422.59 486.60 422.08 C 486.82 421.85 487.18 421.85 487.40 422.08 C 487.74 422.42 496.06 455.93 497.73 463.66 C 498.16 465.64 497.11 466.18 485.64 469.91 C 471.86 474.40 472.00 474.36 472.00 473.16 Z M 484.36 464.88 C 486.25 464.02 486.97 462.71 487.50 459.13 C 487.88 456.58 488.61 453.73 489.11 452.79 C 490.07 451.00 488.11 438.00 486.89 438.00 C 486.52 438.00 486.02 439.24 485.77 440.75 C 485.25 443.84 480.49 461.55 479.46 464.25 C 478.66 466.32 480.64 466.58 484.36 464.88 Z M 746.00 473.42 C 746.00 472.74 746.44 471.15 754.53 442.50 C 757.63 431.50 760.56 422.10 761.03 421.61 C 761.52 421.09 762.11 421.73 762.40 423.11 C 762.69 424.42 764.75 433.60 766.98 443.50 C 769.22 453.40 771.22 462.27 771.42 463.21 C 771.96 465.68 770.44 466.59 760.43 469.83 C 749.56 473.34 746.00 474.23 746.00 473.42 Z M 760.39 464.01 C 760.96 463.44 761.30 461.23 761.14 459.09 C 760.77 453.99 762.30 453.18 763.91 457.63 C 764.61 459.57 765.40 460.93 765.67 460.67 C 766.32 460.01 761.76 440.00 760.95 440.00 C 760.60 440.00 758.82 445.51 757.00 452.25 C 755.18 458.99 753.49 465.04 753.25 465.71 C 752.74 467.13 758.69 465.71 760.39 464.01 Z M 838.50 423.12 C 828.02 418.98 827.00 418.28 826.97 415.21 C 826.95 412.89 831.95 391.12 835.40 378.50 C 836.49 374.54 836.55 374.50 841.50 374.37 C 844.25 374.30 849.42 374.62 853.00 375.08 C 858.43 375.77 859.95 376.41 862.25 378.97 C 866.98 384.24 866.26 387.46 855.77 407.97 C 850.69 417.88 846.31 425.97 846.02 425.94 C 845.73 425.91 842.35 424.64 838.50 423.12 Z M 845.25 417.25 C 846.02 415.74 849.51 408.88 853.01 402.01 C 857.54 393.11 859.38 388.37 859.43 385.51 C 859.49 381.80 859.20 381.35 855.50 379.55 C 853.30 378.47 848.93 377.41 845.80 377.18 C 840.46 376.79 840.06 376.92 839.59 379.13 C 839.31 380.43 837.43 388.48 835.42 397.00 C 833.41 405.52 831.70 412.95 831.63 413.49 C 831.52 414.34 841.24 419.78 843.18 419.94 C 843.55 419.97 844.48 418.76 845.25 417.25 Z" stroke-linecap="round"></path>
</g>
</g>
</g>

  </svg>